<?xml version="1.0" encoding="utf-8"?>
<!-- Generator: Adobe Illustrator 24.0.1, SVG Export Plug-In . SVG Version: 6.00 Build 0)  -->
<svg version="1.1" id="Capa_1" xmlns="http://www.w3.org/2000/svg" xmlns:xlink="http://www.w3.org/1999/xlink" x="0px" y="0px"
	 viewBox="0 0 300 300" style="enable-background:new 0 0 300 300;" xml:space="preserve">
<style type="text/css">
	.st0{fill:#202222;}
</style>
<g>
	<path class="st0" d="M143.4,60.7c-11.5,5.3,45.8-5.8,43.5-19.3S162.1,52.1,143.4,60.7z"/>
	<path class="st0" d="M134.3,53.8c-3.8-6.2-4.1-15.1-6-19.3c-1.2-2.6-4.7-3.9-6.9-0.8C116.7,40.3,146,73,134.3,53.8z"/>
	<path class="st0" d="M145.3,56c-4.4,3.6,16.1-6.5,12.5-9.8C153,41.8,150.7,51.6,145.3,56z"/>
	<path class="st0" d="M118.4,55.3c-1.6,6.3,8.1,3.7,14.5,6.4C138.2,63.9,119.6,50.6,118.4,55.3z"/>
	<path class="st0" d="M157.2,27.2c-8.3-7.8-16.7,30.8-16.7,30.8C150.3,40.4,164,33.6,157.2,27.2z"/>
	<path class="st0" d="M166,102.4c-0.2,0.6,3.4,2.2,4.4,0.7C171.3,101.7,166.6,100.6,166,102.4z"/>
	<path class="st0" d="M164.1,84.2c0.7-1.6-4.1-2-4.4-0.1C159.5,84.7,163.3,85.8,164.1,84.2z"/>
	<path class="st0" d="M178.2,96.1c-0.1-1.5-10.2,0.1-12.3,0.2c-2.1,0.2-9.6-0.8-9.4,1c0.2,1.9,8.5,0.8,10,0.7
		C167.9,98,178.2,97.6,178.2,96.1z"/>
	<path class="st0" d="M134,97c-0.3-0.6-3-0.5-5.8-0.5c-3.2,0-6.7,0-6.7,0.8c0,0.7,3.1,1,6.3,1C131,98.3,134.3,97.8,134,97z"/>
	<path class="st0" d="M169,74.4c-0.1-1.9-10.2,0-12.3,0.2s-9.6-1-9.4,1.2c0.2,2.4,8.5,1.1,10,1C158.7,76.7,169.1,76.3,169,74.4z"/>
	<path class="st0" d="M127.4,83.6c-1.8,0.1-8-0.7-8,0.6c0,2,7.2,0.8,8.4,0.8C131.2,84.9,131.7,83.2,127.4,83.6z"/>
	<path class="st0" d="M120.5,87.8c0,2,8.7,0.8,10.2,0.7c4.2-0.1,4.8-1.8-0.5-1.4C128.1,87.3,120.5,86.4,120.5,87.8z"/>
	<path class="st0" d="M128.5,74.2c-1.5,0-8.8-0.6-8.8,1.1c0,1.7,8.1,0.5,10.2,0.4C132.3,75.6,132.9,74.1,128.5,74.2z"/>
	<path class="st0" d="M135.9,79.5c0,1,4.4,1.1,5.2,1c0.8-0.1,2.6-0.2,2.3-0.9s-0.4-1.3-3.8-1.1C136.3,78.7,135.9,79.5,135.9,79.5z"
		/>
	<path class="st0" d="M120.8,100.3c0.2,0.5,0.3,0.9,2.9,0.8c2.6-0.2,2.9-0.7,2.9-0.7c0-0.7-3.3-0.8-4-0.7
		C121.9,99.7,120.6,99.8,120.8,100.3z"/>
	<path class="st0" d="M133.6,69.4c-0.2-0.8-0.3-1.6-3.1-1.3c-2.8,0.3-3.1,1.2-3.1,1.2c0,1.2,3.6,1.3,4.3,1.2
		C132.4,70.4,133.8,70.2,133.6,69.4z"/>
	<path class="st0" d="M172.5,65.6c-2.5,0-13.4,1.2-16.7,1.7c-3.3,0.4-13.7,0.8-12.5,2.5c1.2,1.8,10.8,1,18,1
		c7.2,0,14.5-0.3,17.1-0.4c2.7-0.1,1.9,3.2,2,5.4c0.1,2.3-0.8,2-3.2,2.6c-1.6,0.4-9.5,1-13.5,0.5c-3.2-0.4-3.4,1.5-2.3,1.7
		c1.8,0.3,4.6,0.6,6.3,0.8c1.2,0.1,0.5,1.3,0,1.4c-0.5,0.1-1.5,0-1.5,1.4c-0.1,1.4,2.2,0.2,5.9-0.3c3.8-0.4,6.1-0.9,4.2-0.9
		c-1.9,0-4.6-0.2-6.3-0.3c-1.8,0-1.6-0.8-0.6-1c1-0.2,5.2-0.3,7.1-0.2c2,0.2,3.6-1.1,3.8-0.1c0.3,3.3-0.1,3.6-0.1,5.1
		c0,0-0.1,1.8,0,2.7c0,0.9-0.7,0.4-1.2,0.4c-0.5,0-7.6,0.1-7.4,1.5c0.2,1.4,8.4,1.4,9,1.4c0.7,0,1.4,0,1.5,0.4s0.3,2.6,0.3,4.2
		c0,0.5,0.1,2.4,0.2,2.9s0.3-0.5,0.5,0.4c0.3,0.8-0.3,0.8-1.2,0.9c-0.9,0.1-6.4,0.7-7,0.7c-0.6,0-3.1-0.1-3.1,0.6
		c0,0.7,2.9,0.9,3.5,1c0.6,0.1,4.5,0.3,7.7-0.3c3.2-0.6,23.1-0.3,25.8-0.3c3,0,3.8,2,5.3,3.8c0,0,20.5,28.4,22.9,30.7
		c0,0.6-0.5,1-2.2,1c-2.8,0.1-1.7-1.3-2.8-1.5c-1.1-0.2-5.5,2.8-12.8,4.2c-7.4,1.4-14,2-14.3,3.5c-0.3,1.4,8.3,0.9,15,0.3
		c6.8-0.7,13.6-1.6,14.9-1.8c1.3-0.2,2.6-0.8,1.5,1c-10.7,17.6-81,128.3-83,130.9C151.6,277.3,78,170.6,63,146.7
		c-1.7-2.6,0.8-2.8,3.1-2.5c5.5,0.7,41.5,3.5,41.5,1.1c0-1.7-6.2-0.5-18.2-0.9c-12-0.3-23.6-5.2-24.5-5.3c-0.9-0.1-1,1.2-2.7,1.2
		c-1.7-0.1-0.6-1.7,0.7-3.7c6.5-9.8,23.2-28.3,22.8-30.1c-0.6-2.3,21.1-1.6,21.1-1.6c1.5,0.1,10.9-0.2,14.7,0.2
		c3.7,0.4,12.9,0.6,17,0s2.9-1.7,0.3-1.9c-2.5-0.2-19,0.2-21-0.8c-2.1-0.9-1.8-4.5-1.4-6.9c0.4-2.1,0.7-1.8,3.9-1.9
		c3.2,0,13-0.1,15.6-0.7c2.6-0.5,4.1-0.5,3.8-1.5c-0.3-1-5.4-0.5-9.5-0.7c-4.1-0.2-12-0.5-13-0.6c-1-0.1-0.6-7.3-0.6-8.2
		c0-0.8,10.4-0.8,13.7-1.3c3.2-0.5,5.9-1.6,2.2-2.1c-3.7-0.6-14.7-0.3-15.3-0.5c-0.6-0.2-0.2-5.7,0.3-6.8c0.3-0.7,5.8-0.4,6.9-0.4
		c1.2,0,1.2-1.9,1.2-1.9c0-1.4-5.5-1.1-6.9-0.9c-1.5,0.1-2.5,1.3-3.4,2.5c-0.9,1.2-0.6,6.8-0.5,8.2c0,1,0.6,1.1,1.1,1.2
		c-0.5-0.1-1.2,0-1.2,0.8c0,1.3,0.2,10.6,0,12.3c-0.3,1.6-0.8,7.7-0.8,8c0,0.3,1.2,0.6-0.2,0.7c-1.4,0.1-6.8,0.4-6.8,0.4
		c-4.5,0.3-19.8,0.6-21.7,0.7c-1.9,0.1-2.3,1.4-4.3,4.1c-2,2.7-20.2,28.7-21.5,30.7c-1.2,1.9-3.6,2.5-1.6,6.2c2,3.6,25,34.9,37.7,55
		c12.7,20,54.9,80.3,55.7,81.3s0.4,3.2,2.1,3.1c1.6-0.1,1.1-2.4,3-4.8c1.9-2.5,84.3-136,85.5-138c1.2-1.9,3.2-3.3-0.8-4.8
		c-4-1.6-25.5-31.9-25.5-31.9c-2.5-2.6-1.5-3.3-5.5-3.4c-4.1-0.1-22.4,0-23.6,0c0,0-2.1-0.5-1.8-2.1c0.3-1.6,0-1.8-0.1-4.6
		c0-1.3-0.7-22.9-0.9-25.3s-1.4-2.5-2.1-3.1C180.4,64.9,175,65.6,172.5,65.6z M116.1,80.3c0.1,0-0.1,0-0.3-0.1
		C115.9,80.2,116,80.2,116.1,80.3z"/>
	<path class="st0" d="M205.3,126.8c0,0-3.3,0.7-3.1,1.8c0.2,1.2,3.5-0.3,3.8,1.3c0.3,1.6-2.5,1.1-2.2,2.2c0.5,1.5,3.3-0.5,3.8,1.2
		c0.3,1.1-3,1-2.7,2.3c0.4,1.4,3.7-0.1,4,1.3c0.1,0.4-0.3,1.1-2,1.5c-1.7,0.4-3.9,0.5-3.8,1.5c0.1,1,5.7,0.2,8.2-0.3
		c2.5-0.5,14-2.3,18.9-3.9c1.4-0.5,2-0.9,0.9-1.8c-1.1-0.9-7.6-8.2-8.6-9.4c-2.5-3-4.2-6.1-6.2-8.8c-2-2.7-4.9-10.3-6.1-10.5
		c-1.2-0.3-1.5,0.1-7.4,1.7c-0.7,0.2-4.5,0.8-4,2.1c0.6,1.5,4.2-0.8,4.9,0.5c0.5,1-5.5,1.6-5.3,3.2c0.2,2,8.6-2.3,9.5-0.3
		c0.6,1.2-7.4,2.3-7.2,4c0.2,1.7,3.5-0.2,4.2,0.9c0.9,1.2-3.1,1.2-2.5,2.9c0.6,1.9,5.8-1.6,6,0.2c0.3,1.9-7,2-6.3,4
		c0.7,2,5.9-1.3,6.4,0.1C208.9,125.4,205.3,126.8,205.3,126.8z"/>
	<path class="st0" d="M190.4,145.9c0.2,1.5,10.6,2.2,10.5-0.7C200.9,142.9,190.2,144.4,190.4,145.9z"/>
	<path class="st0" d="M81.8,118.7c-1.6,1.2-11.2,14.7-12.2,15.9l-1,1.2c0,0-0.1,0.1,0.6,0.5c6.2,3.4,15.5,5.1,15.9,4.1
		c0.4-1.1-10-3.8-11-4.3c-1-0.5,0.9-2.2,2.9-5c0,0,0,0,0,0c1.4-1.6,6.6,1.4,7,0.9c0.4-0.5-5.3-3.4-4.8-4.3c0,0,0,0,0,0.1
		C83.7,120.2,83.2,117.6,81.8,118.7z"/>
	<path class="st0" d="M76.4,134.2c0,0,2.9,0.7,3.1-0.1c0.2-0.8-1.3-1.3-2-1.5C76.8,132.4,75.7,133.6,76.4,134.2z"/>
	<path class="st0" d="M113.3,200.2c-0.2,0.5-0.2,1.4,0.5,1.6c0.7,0.2,1.1-1.5,1.1-1.5C114.5,199.7,113.4,199.7,113.3,200.2z"/>
	<path class="st0" d="M117.5,208.9c0.6,1.6,2.1,0.2,1.5-0.8C118.8,207.5,116.8,207.3,117.5,208.9z"/>
	<path class="st0" d="M132.6,234c1.1,1.3,2.3-0.6,1.7-1.4C133.4,231.2,131.5,232.7,132.6,234z"/>
	<path class="st0" d="M138,250.5c3.1,4.1,11.8,15.2,13.6,17.8c2,3.1,1.9,2.8,2.9,1.2c0.8-1.4,6-9.5,8.2-13c0.2-0.2,0.5-0.6,0.8-1.3
		c0.1-0.2,0.2-0.4,0.3-0.6c2.8-5,21.5-35.5,29.2-48.2c1.8-3,4.5-6.9,7.2-11.9c0.6,0,1.1-0.4,1.5-1.7c0.1-0.3,0.4-1,1-1.9
		c0.6-0.9,1-1.5,1.1-1.8c5.4-8.4,19.2-27.7,19.6-28.9c0.5-1.4,1.1-1.7-0.7-2.2c-1.8-0.5-26.8-1.2-27.1,0.8c-0.2,1.1,2.5,1.5,3.2,2.1
		c0.9,0.8-0.1,1.7-0.8,1.7c-3.4-0.2-5.3-0.1-6.3-0.2c-1.5-0.3-2.6,1.5,0,2c1.6,0.3,3,1.1,2.8,1.8c-0.2,0.8-3.5,0.7-4.7,0.6
		c-2.2-0.2-2.2,1.4-0.8,1.7c1.4,0.3,4.1,0.6,4,1.1c-0.1,1.3-4,0.7-7,0.5c-2.2-0.2-2.2,1.4-0.1,1.7c2.1,0.3,3.1,0.5,4.6,0.5
		c1.5,0.1,2.3,0.4,2.2,1.4c-0.1,0.9-2.3,0.3-4.1,0.3c-2,0-3.9-0.3-4.8-0.3c-1.9-0.1-2.2,1.7,0.1,1.8c1.9,0.1,3.1,0.7,2.5,1.8
		c-0.5,1.1-5.3-0.7-5.2,1.1c0.1,0.7,0.9,0.8,0.9,0.8c1.3,0.1,1.5,0.9,1.4,1.4c-0.1,1.2-3.1,0.3-3.1,1.1c-0.1,1.6,2.8,0.9,4.6,1.5
		c1.3,0.5,2,0.8,1.6,1.3c-0.4,0.6-5.5-1.4-6.4,0.4c-0.6,1.3,3.6,2,3.9,2.1c2.5,0.3,1.9,1.5,0.1,1.5c-0.8,0-4.5-0.4-5.8-0.6
		c-2.2-0.3-3.1,1.6-1.3,1.9c2,0.4,2.4,0.6,2.4,1.1c-0.1,0.9-0.8,1-3.8,0.6c-2.2-0.3-2.3,1.3-0.2,1.7c2.1,0.5,3.1,0.7,4.5,0.8
		c1.5,0.2,2.3,0.6,2.1,1.5c-0.2,0.9-2.3,0.2-4.1,0.1c-2-0.1-3.9-0.5-4.8-0.6c-1.9-0.2-2.3,1.6,0,1.8c1.9,0.2,3,0.9,2.4,2
		c-0.6,1.1-5.1-1-5.2,0.8c-0.1,1.1,1.3,1.3,2.2,1.5c1.3,0.2,1.4,1,1.3,1.5c-0.1,0.8-1.5,0.7-2.4,0.6c-1.6-0.3-3.7-0.5-4.2-0.5
		c-1-0.1-1.4,1.3-0.1,1.6c1.6,0.4,4,0.5,3.6,2.2c-0.3,1.1-1.8,0.7-3.1,0.5c-2.2-0.3-2.8,1.4-0.9,1.7c2,0.3,2.4,0.5,2.4,1
		c-0.1,0.9-0.7,1-3.8,0.7c-2.2-0.3-2.3,1.3-0.2,1.7c2.1,0.4,3.1,0.6,4.5,0.7c1.5,0.2,3.7,0.6,3.5,1.6c-0.3,1.2-5.9-0.1-7.8-0.3
		c-2-0.2-3.9-0.5-4.8-0.5c-1.9-0.2-2.3,1.6,0,1.8c1.9,0.2,5,0.8,4.6,2c-0.4,1.3-6-0.7-6.1,1.1c-0.1,1.1,1.3,1.2,2.2,1.4
		c0.9,0.2,1.4,0.9,1.4,1.5c-0.2,1.1-3.7-0.5-3.9,0.8c-0.2,1.1,2.8,1.2,5.1,1.5c1.2,0.2,2.1,0.6,1.9,1.3c-0.7,1.7-6.2-0.6-6.5,0.5
		c-0.3,1.1,3.4,1.9,3.4,1.9c0.3,0.1,1.3,0.5,1,1.2c-0.6,1.2-8.1-1-9.4-1.3c-2.2-0.4-3.2,1.4-1.3,1.9c2,0.5,2.4,0.7,2.3,1.2
		c-0.1,0.9-0.8,1-3.8,0.4c-2.1-0.4-2.4,1.1-0.3,1.7c2.1,0.5,3.1,0.8,4.5,1c1.5,0.3,2.5,0.8,2.3,1.7c-0.2,0.9-2.3,0.1-4.1-0.1
		c-2-0.2-3.9-0.7-4.7-0.8c-1.9-0.3-2.4,1.5-0.1,1.8c1.9,0.3,5.9,1.2,5.5,2.7c-0.3,1.2-5.4-1-5.7,0.7c-0.2,1.1,1.2,1.5,2.1,1.5
		c7.4,0.3,6.1,5-1.7,2.3c-1.3-0.5-2.6-3.1-7.3-0.6c-1.3,0.7-3.1,1.1-3.1,0.2c0.1-0.9,1.8-1.5,1.6-2.3c-0.3-1.2-2.9,0.1-3-1
		c-0.1-0.9,1.2-0.8,1.1-1.6c0-0.3-0.2-0.4-0.4-0.5c0,0,0,0,0,0c0,0,0,0,0,0c0,0,0,0,0,0c-0.1,0-0.2,0-0.2-0.1c0,0,0,0,0,0
		c-0.1,0-0.1,0-0.2,0c-0.2,0-0.3,0-0.5,0c-1,0-3.7,0.7-4.3-0.5c-0.7-1.3-2.9-3.4-3.1-4.8c-0.2-1.1,2.1-1.5,2.1-2.9
		c0-1.2-4.2,0.7-4.3-0.5c-0.2-1.4,2.4-2.4,2.3-3.4c-0.1-0.9-4.3,1.2-4.5,0.1c-0.1-1.2,1.4-1.4,1.3-2.6c-0.1-0.8-3.4,0.2-3.7-1
		c-0.3-1.1,0.6-1.4,0.6-2.2c0-0.7-2.1-0.1-2.3-1.1c-0.3-1.2,0.6-1.4,0.4-2.6c-0.1-0.8-2-0.3-2.3-1.1c-0.4-1.1,1.1-1.2,0.9-2.3
		c-0.1-0.9-2.4,1-2.7,0c-0.2-0.6-2.8-4.3-3-5.4c-0.2-1.3,1.7-1.3,1.5-2.6c-0.2-1.1-3.6,0.6-4-0.4c-0.5-1.3,0.3-1.7,0.3-2.6
		c0-0.7-2.8,0.5-3.1-0.5c-0.2-0.9,0.9-1,0.7-1.7c-0.2-0.8-4.1-0.1-4.3-1c-0.4-1.2,2.2-1,2.1-2.6c-0.1-1.1-4.3,0.5-4.5-0.6
		c-0.1-1.2,2.3-1.8,2.2-3.2c0-0.9-4.3,0.7-4.6-0.5c-0.3-1,2.4-2.1,2.3-2.9c-0.1-0.9-4.9,0.1-5-0.9c-0.1-0.8,3.2-1.6,3.1-2.5
		c-0.1-0.6-6.2-0.4-6.6-1.1c-0.4-0.7,1.4-2,1.1-2.5c-1-1.4-5.1-0.7-6.1-3c-1-2.2-2-2-1.5-0.5c0.5,1.5,18.8,24.5,19.3,25.7
		c0.5,1.2,1.3,2.3,2.1,3.7c0.8,1.3,20.2,33.8,21.2,34.6c0,0,0,0,0,0c1.4,1.7,3.8,4.2,4.9,5.6C136.6,248.6,137.3,249.9,138,250.5z
		 M200.7,161.9c0.2-1.6,2.9-0.8,2.8,0.4C203.4,163.6,200.5,163.3,200.7,161.9z M196.6,165.6c0-2.1,6.2-1.3,6.1,0.7
		C202.7,168.4,196.6,166.8,196.6,165.6z M197.7,170c0-1.2,2.7-0.7,2.7,0.3C200.3,171.3,197.6,171.3,197.7,170z M193.5,169.4
		c0-0.8,2.5-0.9,2.4,0.3C195.9,170.7,193.5,170.5,193.5,169.4z M195.1,173.7c0.7-1.2,2.8-0.3,2.3,0.7
		C196.8,175.4,194.4,174.7,195.1,173.7z M193.6,177.4c0.4-1,3.1-0.9,2.5,0.6C195.6,179.2,193.1,178.6,193.6,177.4z M187.8,176.7
		c0.1-1.2,2.9-1.1,2.8,0.3C190.4,178.5,187.6,178.1,187.8,176.7z M191.1,181.2c0.5-1.6,3.5-0.7,2.5,0.8
		C193,183,190.9,182.2,191.1,181.2z M185.9,180.3c0-1.3,2.8-1,2.6,0.3C188.5,182,185.9,181.7,185.9,180.3z M188.9,184.9
		c0.1-1.1,3.1-1.2,2.8,1C191.5,187.2,188.8,186.1,188.9,184.9z M187.5,188.7c0.1-1.2,2.8-0.6,2.6,0.4
		C190,190.1,187.4,190,187.5,188.7z M185.4,192.2c0.1-1.2,2.8-0.6,2.6,0.4C187.9,193.7,185.3,193.5,185.4,192.2z M181.2,191.3
		c0.1-0.8,2.5-0.7,2.4,0.5C183.5,192.8,181.1,192.3,181.2,191.3z M184,195.8c0.8-1.1,2.9-0.1,2.2,0.9
		C185.6,197.6,183.3,196.8,184,195.8z M184.2,200.6c-0.6,1.1-3,0.4-2.4-0.8C182.2,198.8,184.9,199.2,184.2,200.6z M177.4,198.7
		c0.2-1.1,3-0.9,2.7,0.4C179.9,200.7,177.2,200.1,177.4,198.7z M175.9,202.4c0.1-1.3,2.8-0.8,2.6,0.5
		C178.3,204.3,175.7,203.8,175.9,202.4z M173.7,206.6c0.1-2.1,8.4-1.8,7,0.9C179.7,209.2,173.6,207.8,173.7,206.6z M176.3,210.8
		c0.1-1.2,2.7-0.6,2.6,0.4C178.8,212.2,176.2,212.1,176.3,210.8z M170.9,209.9c0.1-0.8,2.5-0.8,2.4,0.4
		C173.2,211.3,170.8,210.9,170.9,209.9z M174.9,214.3c0.8-1.2,2.9-0.2,2.2,0.8C176.5,216.1,174.2,215.3,174.9,214.3z M172.4,218
		c0.5-1,3.1-0.7,2.5,0.7C174.3,219.9,171.8,219.2,172.4,218z M167.8,217.4c0.2-1.1,2.9-1,2.8,0.4
		C170.4,219.3,167.6,218.8,167.8,217.4z M170.4,222c0.5-1.6,3.5-0.5,2.4,0.9C172.2,223.9,170.1,223,170.4,222z M165.8,220.9
		c0.1-1.3,2.8-0.8,2.6,0.4C168.2,222.7,165.7,222.3,165.8,220.9z M167.8,225.6c0.1-1.1,3.1-1,2.7,1.1
		C170.4,228,167.7,226.7,167.8,225.6z M166.3,229c0.2-1.2,2.8-0.4,2.6,0.6C168.8,230.6,166.2,230.3,166.3,229z M167.1,233.1
		c-0.2,1-2.8,0.7-2.6-0.6C164.6,231.3,167.2,232.1,167.1,233.1z M160.2,231.3c0.1-0.8,2.5-0.6,2.4,0.6
		C162.4,232.9,160.1,232.3,160.2,231.3z M162.5,235.4c0.8-1.1,2.9,0,2.2,1C164.1,237.3,161.8,236.4,162.5,235.4z M163,240.5
		c-0.6,1.1-3,0.2-2.4-0.9C161.1,238.6,163.8,239,163,240.5z M156.4,238.9c0.2-1.1,3-0.8,2.7,0.6C158.8,241,156.1,240.3,156.4,238.9z
		 M158.2,243.5c0.6-1.5,3.5-0.3,2.4,1.1C159.9,245.5,157.9,244.4,158.2,243.5z M153.5,247.8c1.1-1.3,8.1,0.2,7.3,1.6
		C159.8,251.4,152,249.7,153.5,247.8z M143,245.4c0.2-1.3,2.8-0.7,2.6,0.6C145.3,247.4,142.8,246.8,143,245.4z M110.5,205.7
		c-0.2-0.6-0.2-1.4,0.1-1.6c0.3-0.2,0.7,0.4,1,1.1c0.3,0.5,0.1,0.8-0.2,1C111.2,206.5,110.8,206.3,110.5,205.7z M112.9,209.3
		c-0.3-0.5-0.3-1,0.2-1.3c0.4-0.3,0.7,0.4,1,1.1c0,0,0.5,0.9,0,1.1C113.6,210.3,113.2,209.8,112.9,209.3z M114.8,213
		c-0.5-0.6-0.2-1.4,0.2-1.7c0.4-0.3,0.9,0.6,1.2,1.1c0.1,0.3,0.5,1.2,0,1.5C115.7,214.2,115.4,213.6,114.8,213z M117.1,216.6
		c-0.4-0.6-0.2-1.1,0.2-1.5c0.5-0.4,0.8,0.3,1.1,0.9c0.2,0.4,0.5,1.2,0,1.5C118,217.8,117.5,217.2,117.1,216.6z M119.2,220
		c-0.4-0.6-0.1-1,0.3-1.4c0.3-0.3,0.7,0.4,1,0.9c0.3,0.5,0.5,1.1-0.1,1.4C119.8,221.2,119.6,220.6,119.2,220z M121.5,223.5
		c-0.4-0.7-0.2-1.2,0.2-1.5s0.7,0.5,1.1,1c0.4,0.5,0.3,1-0.2,1.3C122.2,224.6,121.9,224.2,121.5,223.5z M123.5,227.1
		c-0.5-0.7-0.1-1.1,0.3-1.3c0.4-0.3,0.8,0.3,1,0.9c0,0,0.6,1,0.1,1.4C124.5,228.4,124,227.8,123.5,227.1z M125.8,230.6
		c-0.4-0.7-0.1-1.1,0.3-1.4c0.4-0.3,0.7,0.3,1,0.8c0,0,0.5,1.2,0,1.5C126.6,231.8,126.2,231.3,125.8,230.6z M128.1,234.2
		c-0.4-0.8-0.1-1.1,0.2-1.3c0.4-0.3,0.7,0.3,1,0.7c0,0,0.7,1.3,0.1,1.6C128.8,235.5,128.5,235,128.1,234.2z M130.7,238.1
		c-1-1.4-0.5-3.1,1-1.1c0.4,0.5,0.3,1.3,0,1.6c-0.1,0-0.2,0-0.3,0.1C131.2,238.6,130.9,238.4,130.7,238.1z"/>
</g>
</svg>
