<?xml version="1.0" encoding="utf-8"?>
<!-- Generator: Adobe Illustrator 24.0.1, SVG Export Plug-In . SVG Version: 6.00 Build 0)  -->
<svg version="1.1" id="Capa_1" xmlns="http://www.w3.org/2000/svg" xmlns:xlink="http://www.w3.org/1999/xlink" x="0px" y="0px"
	 viewBox="0 0 1154.4 407.4" style="enable-background:new 0 0 1154.4 407.4;" xml:space="preserve">
<style type="text/css">
	.st0{fill:#FFFFFF;}
</style>
<g>
	<g>
		<path class="st0" d="M572.3,165.7l1.3,0.3c2,0,3-1.3,3-2.7c0-1.3-1-2.7-2.4-3c-4.7-1.3-17.5-3-34.7-4.4
			c25.6-38.8,61.3-84.3,107.8-134.5c0.7-0.7,1-1.3,1-2c0-1.3-1.7-3-3-3c-0.7,0-1.3,0.3-2,1c-39.4,42.5-78.9,89-110.9,137.8
			c-29.7-2-69.4-4-100.4-4H425c38.1-49.5,77.2-94.7,111.2-127.4c0.7-0.7,1-1.3,1-2c0-1.7-1.3-3-3-3c-0.7,0-1.3,0.3-2,1
			c-35.4,34-75.8,80.9-114.9,131.4c-46.8,1-85.3,6.1-90,20.6c-0.3,1-0.3,2.4-0.3,3.4c0,4.7,1.7,10.4,2.7,14.5
			c2,8.1,5.1,18.2,5.1,32.4c0,19.2-5.4,45.8-24.3,83.6l-0.3,1.3c0,2,1.7,3.4,3,3.4c1,0,1.7-0.7,2.4-1.7
			c31.3-50.6,67.7-103.1,104.8-151.7h7.4c32,0,71.1,2,101.4,4c-15.2,23.6-48.2,79.2-48.2,113.2c0,5.4,1,10.4,3,14.5
			c0.7,1.3,1.7,2,2.7,2c1,0,2-1,2-2.4l-0.3-1.7c-1.7-3.4-2.4-7.4-2.4-12.1c0-32,35-90.3,49.9-112.9
			C552.7,163,566.2,164.3,572.3,165.7z M330.6,273.8c7.4-21.2,10.1-38.4,10.1-51.9c0-24.3-8.1-37.4-8.1-45.8l0.3-2.7
			c5.7-16.5,65.7-15.8,79.9-16.2C384.2,194.6,356.2,234.4,330.6,273.8z"/>
		<path class="st0" d="M927.8,181.8c21.9-20.2,61.3-57,88-85.6c53.9-2.7,64.2-3.5,81.3-4.2c13.9-0.5,24.2-0.2,34,0.2
			c2,0,3-1.3,3-2.4c0-1.3-1-2.3-3-2.4c-15.4-0.4-20.9-0.7-35.6-0.7c-18.2,0-52.9,2.1-73.9,3.4c12.1-13.5,21.2-24.6,21.2-31
			c0-1.3-0.3-2.4-1-3.4c-1.3-1.7-3-2.4-5.1-2.4c-14.8,0-48.5,37.7-49.9,38.4c-44.8,2.7-88,6.7-122.3,12.5c-1.7,0-2.7,1.3-2.7,2.4
			c0,1,1,2,2.4,2h1c32.4-5.4,73.5-7.8,115.6-10.4c-26,28.6-54.6,60.3-72.5,94l-0.5,0.9c0,0-0.1,0-0.1,0.1
			c-11.8,7.4-75.5,48.5-95,48.5c-1.3,0-2.7-0.3-3.7-1c-1.7-1-2.4-2.4-2.4-4.4c0-9.8,16.5-29.7,16.5-41.5c0-2-0.3-4-1.3-5.4l-7.1-8.1
			c4-3.4,6.7-6.1,8.4-8.1c1.3-1.7,2.7-4,2.7-5.7c0-1.3-1-2.7-3.4-2.7c-4.4,0-15.2,7.4-15.2,13.8v1c-4.7,3.7-9.8,8.1-16.9,12.8
			c-0.2,0.1-0.3,0.2-0.4,0.4c-0.2,0.1-0.4,0.2-0.6,0.3c-15.5,10.8-66.1,44.1-81.6,44.1c-3,0-5.1-2-5.1-5.7
			c0-9.1,12.1-25.3,23.9-42.1l0.7-1.7c0-1.3-1.7-3-3-3c-0.7,0-1.3,0.3-2,0.7c-14.2,12.1-60.3,50.6-75.8,50.6c-2.7,0-5.1-2.4-5.1-5.1
			c0-12.1,27-39.8,46.2-39.8c4.7,0,9.1,1.7,12.5,5.4c0.7,1,1.7,1.3,2.4,1.3c1.7,0,3-1.3,3-3l-0.7-2c-4.4-5.1-10.4-7.4-16.5-7.4
			c-9.6,0-20.3,5-29.5,12.1c-20,12.2-69.3,42.1-92.1,42.1h-1.3c-4,0-7.4-0.7-9.8-2.7c-2.7-2-3.7-5.1-3.7-8.1
			c0-9.4,8.8-22.6,15.8-29.7c3,2.7,7.1,3.7,11.5,3.7c11.5,0,24.9-7.4,24.9-15.5c0-1.3-0.3-2.4-0.7-3.4c-1.3-3.4-4.4-4.4-8.1-4.4
			c-4,0-9.4,1.7-14.2,3.7c-16.2,7.4-31.3,22.9-34.7,40.8c-0.3,2-0.7,3.7-0.7,5.4c0,4.7,1.7,9.1,6.1,12.1c3.4,2.4,7.4,3.7,12.5,3.7
			c21.2,0,55.9-19.1,80.4-34c-5.5,6.9-8.9,14.1-8.9,19.9c0,5.7,4,10.1,10.4,10.1c16.9,0,49.9-26.6,63.4-37.7
			c-7.1,10.8-12.5,20.9-12.5,28.6c0,5.7,3,9.8,9.1,9.8c20.2,0,70.4-34.4,86.3-45.5c0.2-0.2,0.4-0.5,0.6-0.7
			c6.5-4.5,12.7-7.5,16.9-10.7l6.7,7.8c0.3,0.7,0.7,1.7,0.7,2.7c0,8.4-16.5,28.3-16.5,41.1c0,3.7,1.3,7.1,4.7,9.1
			c1.7,1,3.7,1.3,6.1,1.3c21,0,71.1-32.3,92.3-46.3c-4.2,9.1-6.7,17.6-6.7,24.7c0,5.7,1.7,10.4,5.4,14.2c4.4,4.4,11.1,6.4,19.2,6.4
			c30.8,0,80.6-27.2,105.6-42.4c-8,11.1-14.6,22.8-14.6,30.9c0,3,1,5.7,3,7.8c1.7,1.3,3.7,2,6.1,2c13.8,0,36.1-21.6,43.8-29.3
			c-8.8,14.5-21.2,34.4-35.4,54.9c-41.1,12.8-82.6,43.8-105.8,80.9c-6.1,9.8-11.5,21.2-11.5,29.7c0,3.7,1,6.7,3.7,8.8
			c2,1.3,4.4,2,7.1,2c31.3,0,97.7-98.1,110.2-116.3c3.4-2,24.6-6.4,48.5-6.4c15.8,0,33,2,47.2,7.8l1.7,0.3c1,0,1.3-0.3,1.3-0.7
			l0.3-0.7c0-1-1-1.3-1.3-1.7c-13.8-7.4-32.7-9.4-49.5-9.4c-20.6,0-38.4,3-43.8,4.4c20.9-31.3,38.4-60.3,43.8-71.4l0.3-1.3
			c0-1.7-1.7-3-3.4-3c-0.7,0-1.3,0.3-2,1c-4.7,5.7-20.9,23.6-36.1,35c-5.1,4-14.2,9.8-18.9,9.8c-1.7,0-3-0.7-3.4-2.4v-1.7
			c0-8.1,10.1-24.3,24.3-41.5l0.7-2c0-1.7-1.3-3-3-3c-0.7,0-1.7,0.3-2.4,1.3c-1,1.2-2.1,2.5-3.2,3.9c-18.2,11.4-80.2,47-113.1,47
			c-6.4,0-12.1-1.7-15.5-5.1c-2.7-2.7-4-6.4-4-10.8c0-7.8,3.4-17.2,9.1-27.6L927.8,181.8z M594.2,185.2c2.7,0,3.4,0.7,4,2.7
			c0,3.7-11.1,9.4-19.2,9.4c-2.7,0-5.1-0.7-6.7-2C574.6,193.3,587.8,185.2,594.2,185.2z M924.4,384.7c-1.3,0-2.7-0.3-3.7-0.7
			c-1.3-0.7-2-2.4-2-4.4c0-6.1,4.7-16.2,9.4-23.9c21.6-35,58-63.4,96.4-77.2C1011.7,296.8,949.4,384.7,924.4,384.7z M1035.7,58.8
			c0.7,0,1,0,1.3,0.3l0.3,1c0,6.1-22.9,30-23.3,30.3l-18.5,1C997.6,89.2,1027.9,58.8,1035.7,58.8z M989.1,97.9l18.5-1
			c-26.3,27-63.7,61.7-84.9,81.6C942.3,149.2,965.6,123.5,989.1,97.9z"/>
	</g>
	<g>
		<path class="st0" d="M271.9,100.9c-16.3-8.5,47.6,47.4,61.1,32.7C346.5,118.8,298.5,114.7,271.9,100.9z"/>
		<path class="st0" d="M271.7,84.2c3.7-9.9,13.6-18.1,16.8-24.2c1.9-3.6,0.3-8.9-5.3-8.6C271.5,52,260.1,114.8,271.7,84.2z"/>
		<path class="st0" d="M278.9,98.8c-8-1.9,21.8,12.7,22.4,5.6C302.2,95,288.8,101.1,278.9,98.8z"/>
		<path class="st0" d="M255.7,67.3c-8.7,3.8,3,12.6,5.7,22.4C263.6,97.7,262.2,64.5,255.7,67.3z"/>
		<path class="st0" d="M322.7,86.8c1.5-16.5-50.3,8.3-50.3,8.3C301.3,90.7,321.4,100.3,322.7,86.8z"/>
		<path class="st0" d="M244.2,164.1c-0.9,0.3,0.6,5.9,3.1,5.7C249.8,169.5,246.8,163.2,244.2,164.1z"/>
		<path class="st0" d="M263.4,145.6c2.5-0.6-1.4-6.4-3.8-5.2C258.7,140.8,260.9,146.2,263.4,145.6z"/>
		<path class="st0" d="M262.3,172.4c1.7-1.4-9.2-11.7-11.3-13.9c-2.1-2.2-7.6-11.7-9.6-9.9c-2,1.9,6.6,10.5,8.1,12.1
			C250.9,162.3,260.6,173.8,262.3,172.4z"/>
		<path class="st0" d="M221.7,122.5c0.5-0.9-2.1-3.9-4.6-7.1c-2.9-3.7-6-7.6-6.9-6.9c-0.9,0.7,1.6,4.5,4.5,8.1
			C217.7,120.2,221.2,123.5,221.7,122.5z"/>
		<path class="st0" d="M279,142.5c2.1-1.8-9.2-11.7-11.3-13.9c-2.1-2.2-7.4-11.9-9.8-9.7c-2.5,2.3,6.4,10.7,7.8,12.3
			C267.2,132.7,277,144.3,279,142.5z"/>
		<path class="st0" d="M231.3,102.9c-1.7-1.9-6.3-9.8-7.8-8.6c-2.2,1.8,5.4,9,6.6,10.3C233.2,108.4,235.5,107.5,231.3,102.9z"/>
		<path class="st0" d="M220.4,98.8c-2.2,1.8,6.9,10.8,8.3,12.4c3.9,4.7,6.3,3.9,1.1-1.8C227.7,107,221.9,97.6,220.4,98.8z"/>
		<path class="st0" d="M243.1,95.8c-1.3-1.6-7.2-10.6-9.1-9.1c-1.9,1.5,6.7,9.8,8.7,12.1C244.9,101.4,247.2,100.8,243.1,95.8z"/>
		<path class="st0" d="M243.6,109.1c-1.2,0.9,2.7,6,3.5,6.9c0.8,0.9,2.6,2.8,3.1,1.9s1.2-1.6-2.2-5.3
			C244.8,108.8,243.6,109.1,243.6,109.1z"/>
		<path class="st0" d="M206.2,110.3c-0.4,0.7-0.8,1.2,1.7,4c2.6,2.8,3.4,2.6,3.4,2.6c0.8-0.6-2.1-4.5-2.7-5.2
			C207.9,111,206.6,109.6,206.2,110.3z"/>
		<path class="st0" d="M253.2,97.3c0.7-1,1.5-1.8-1.3-4.8c-2.8-3-4.1-2.5-4.1-2.5c-1.4,1.1,1.7,5.3,2.4,6
			C250.9,96.8,252.4,98.4,253.2,97.3z"/>
		<path class="st0" d="M292.2,138.6c-2.3-2.9-13.4-14.3-16.9-17.7c-3.5-3.4-13.1-15-14.1-12.1c-1,2.9,8.6,13.3,15,21.6
			c6.4,8.3,13.3,16.3,15.8,19.3c2.5,3-1.9,5-4.4,7.2c-2.5,2.2-3,0.8-5.9-1.4c-1.9-1.5-9.7-10.1-12.6-15c-2.4-4-4.7-2.5-4-1.2
			c1.3,2.4,3.4,5.8,4.8,7.9c0.9,1.5-1,1.8-1.6,1.3c-0.6-0.4-1.3-1.7-3-0.5c-1.6,1.1,1.7,2.6,5.6,6.6c3.9,3.9,6.4,6.2,4.8,4
			c-1.7-2.2-3.8-5.5-5.4-7.5c-1.5-2.1-0.6-2.5,0.6-1.5c1.2,1,5,5.6,6.6,8c1.6,2.4,4.5,3.1,3.5,4.3c-3.5,3.3-4.3,3.1-6,4.4
			c0,0-2.1,1.5-3.1,2.4c-1,0.8-1-0.5-1.5-1c-0.5-0.5-6.8-8.6-8.3-7.2c-1.5,1.4,5.9,10.8,6.5,11.6c0.6,0.8,1.3,1.7,0.9,2.1
			c-0.4,0.4-2.7,2.6-4.5,4.1c-0.5,0.4-2.7,2.3-3.1,2.8s0.8-0.1,0.1,1c-0.7,1.1-1.1,0.4-2.1-0.6c-0.9-0.9-6.5-6.7-7-7.4
			c-0.5-0.7-2.6-3.6-3.4-3c-0.8,0.6,1.6,4.1,2.1,4.9s3.7,5.4,7.3,8.6c3.6,3.2,21,26.2,23.5,29.3c2.7,3.4,1.1,6.1,0.4,9.5
			c0,0-14.2,48.9-14.8,53.7c-0.7,0.6-1.6,0.3-3.2-1.7c-2.6-3.2,0-3.1-0.8-4.5c-0.8-1.4-8.1-3.8-16.3-11
			c-8.2-7.3-14.8-14.2-16.8-13.3c-2,0.9,6.3,10.3,13.1,17.5c6.8,7.2,14,14.1,15.3,15.5c1.4,1.3,3.3,2.3,0.2,2.6
			c-29.7,3.5-219.7,21.7-224.4,21.7c-4.6,0,52.2-179.9,66.1-218.5c1.5-4.2,3.9-1.6,5.7,1.3c4.1,7,33,50.8,35.7,48.6
			c1.9-1.5-5-7.6-15.3-21.7c-10.4-14.1-15.2-31.8-15.8-32.9c-0.6-1.1-2.3,0-3.7-2c-1.4-2,1.5-2.2,4.9-2.5c17-1.3,53.2,1.4,54.9-0.7
			c2.1-2.7,20.7,22.8,20.7,22.8c1.2,1.8,10,12.4,12.9,17c2.9,4.6,10.8,15.4,15.2,19.5s4.5,1.8,2.4-1.3c-2.1-3-17.1-21.7-17.9-24.8
			c-0.8-3.2,3.5-6.1,6.7-7.7c2.8-1.5,2.7-0.8,5.7,2.8c2.9,3.7,11.8,14.8,14.7,17.3s4.2,4.3,5.1,3.1c0.9-1.3-4.3-6.6-7.7-11.5
			c-3.4-4.9-10.2-14.2-11-15.4c-0.8-1.2,7.9-7.3,8.8-8c0.9-0.8,10.2,11.2,13.7,14.6c3.4,3.3,7.1,5.4,4.4,0.6
			c-2.6-4.8-12.9-17.2-13.1-18.1c-0.3-0.9,6.4-5.4,8.1-5.8c1-0.3,5.6,6.3,6.7,7.6c1.1,1.3,3.2-0.3,3.2-0.3c1.6-1.3-3.7-7.2-5.1-8.8
			c-1.4-1.6-3.7-1.7-5.9-1.6c-2.2,0-8.3,5.5-9.8,6.7c-1.1,0.9-0.7,1.8-0.4,2.3c-0.4-0.6-1.1-1.4-2-0.6c-1.5,1.2-12,9.7-14.1,10.9
			c-2.1,1.2-9.6,5.9-9.9,6.2c-0.3,0.3,0.3,1.9-1,0.4c-1.3-1.5-6.5-7.4-6.5-7.4c-4.4-4.9-18.4-22.2-20.2-24.3
			c-1.8-2.1-3.7-1.3-8.6-1.3c-4.9,0.1-51.1,2.5-54.4,2.8c-3.3,0.3-6.1-1.9-8.5,3.6c-2.4,5.6-17.7,60-29.4,92.4
			C58.4,201.7,27,304,26.4,305.8c-0.6,1.8-3.3,3.3-1.7,5.1c1.6,1.8,3.7-0.9,8.2-0.9c4.5,0,231.5-24.8,234.8-25.1
			c3.3-0.4,6.6,0.8,4.9-5.2c-1.7-5.9,13.8-57.8,13.8-57.8c0.7-5.2,2.4-4.6-1-9.4c-3.5-4.8-20-25.7-21.2-27.1c0,0-1.3-2.9,0.8-4
			c2-1.1,2.1-1.7,5.2-4.3c1.4-1.2,25.7-21.4,28.2-23.6c2.5-2.3,1.6-3.8,1.6-5.2C300,147.1,294.5,141.6,292.2,138.6z M225,86.9
			c0.1,0.2,0-0.1-0.2-0.4C224.8,86.7,224.9,86.8,225,86.9z"/>
		<path class="st0" d="M251.3,231c0,0-3.7-3.1-4.8-1.9c-1.2,1.4,3.4,3.8,1.9,5.5c-1.6,1.8-3.5-1.9-4.4-0.5c-1.3,1.9,3.5,3.4,2,5.5
			c-1,1.3-3.8-2.6-5-1c-1.2,1.7,3.4,4.1,2,5.7c-0.4,0.5-1.5,0.7-3.5-0.9c-2-1.6-4.1-4-5.1-2.9c-1.1,1,4.9,6.6,7.7,9.1
			c2.8,2.4,15.1,14,21.4,18.1c1.9,1.2,2.8,1.5,2.9-0.5c0-2,2.6-16.1,3.1-18.2c1.2-5.5,3.2-10.2,4.6-14.9c1.4-4.7,7.4-14.8,6.6-16.4
			c-0.7-1.6-1.5-1.6-8.6-7c-0.8-0.6-4.9-4.5-6-2.8c-1.2,2,4.7,4.1,3.8,6.1c-0.7,1.5-6.7-4.9-8.4-3.2c-2,2,10.3,7.7,8.9,10.7
			c-0.9,1.8-9.2-6.5-11-4.7c-1.7,1.7,3.3,3.8,2.8,5.6c-0.7,2.1-4.2-2.4-5.6-0.3c-1.6,2.4,7,5.2,5.2,7.1c-1.9,2-8.6-6.2-10.3-3.6
			c-1.7,2.6,6.8,5.7,5.5,7.4C256.1,233.9,251.3,231,251.3,231z"/>
		<path class="st0" d="M216.1,231c-1.6,1.6,6.9,14.1,10.3,11.4C229,240.3,217.6,229.4,216.1,231z"/>
		<path class="st0" d="M150.2,81.9c-2.8-0.7-27,0.3-29.1,0.2l-2.3-0.1c0,0-0.2,0-0.1,1.1c1.6,10.2,7.9,22.4,9.5,21.9
			c1.6-0.5-4.5-14.9-4.9-16.5c-0.3-1.5,3.3-0.9,8.4-1.1c0,0,0,0,0.1,0c3,0.2,4.2,8.9,5.2,8.9c1,0-0.9-9.1,0.7-9.4c0,0,0,0-0.1,0
			C150.1,85.5,152.8,82.5,150.2,81.9z"/>
		<path class="st0" d="M127.7,89.6c0,0,1.8,4,2.9,3.5c1.1-0.5,0.4-2.7-0.1-3.7S127.7,88.3,127.7,89.6z"/>
		<path class="st0" d="M84.8,190.9c-0.7,0.3-1.8,1-1.4,2c0.4,1,2.7-0.1,2.7-0.1C86.5,191.9,85.5,190.7,84.8,190.9z"/>
		<path class="st0" d="M78.6,203.5c-1.2,2.1,1.6,2.6,2.3,1C81.3,203.8,79.8,201.4,78.6,203.5z"/>
		<path class="st0" d="M63.3,243.3c-0.5,2.5,2.7,2.1,3.1,0.7C67.1,241.7,63.8,240.9,63.3,243.3z"/>
		<path class="st0" d="M49.2,264.3c-1.9,7.2-6.8,27.1-8.3,31.5c-1.7,5.1-1.5,4.8,1.2,4.4c2.3-0.3,16.3-1.6,22.2-2.2
			c0.4,0.1,1.1,0,2.3-0.3c0.4-0.1,0.7-0.1,1-0.2c8.2-1.3,60-7,81.4-9.6c5-0.6,12-1,20.1-2.4c0.5,0.7,1.4,0.9,3.3,0.2
			c0.5-0.2,1.5-0.4,3.1-0.6c1.6-0.1,2.7-0.2,3-0.3c14.5-1.4,48.9-2.7,50.6-3.3c2.1-0.8,3-0.3,2-2.8c-1-2.5-22.6-31.8-25.1-30.3
			c-1.4,0.8,0.6,4.2,0.5,5.5c-0.1,1.7-2,1.4-2.6,0.6c-2.8-4-4.7-6.2-5.4-7.4c-1-2-4-1.7-2.3,1.8c1,2.1,1.4,4.4,0.5,4.9
			c-1.1,0.5-3.9-3.3-5-4.9c-1.7-2.7-3.6-1.3-2.7,0.6c0.9,1.8,2.9,5.2,2.3,5.6c-1.6,1-4.4-3.9-6.8-7.7c-1.7-2.7-3.6-1.3-2.1,1.4
			c1.5,2.7,2.3,4,3.4,5.7c1.3,1.8,1.6,3,0.3,3.7c-1.2,0.7-2.4-2.3-4-4.4c-1.8-2.3-3.2-4.8-3.9-5.8c-1.6-2.3-4-1-2,1.7
			c1.6,2.3,1.9,4.2,0.2,4.5c-1.8,0.4-3.9-6.7-5.9-5c-0.7,0.7-0.2,1.7-0.2,1.7c1.1,1.6,0.3,2.5-0.4,2.9c-1.4,0.9-3.1-3.3-4-2.6
			c-1.9,1.3,1.6,4,2.4,6.6c0.6,1.9,0.9,3-0.1,3c-1,0-3.3-7.6-6.1-7c-2.1,0.5,0.9,5.9,1.1,6.3c1.9,3.1,0,3.5-1.7,1.4
			c-0.8-1-3.6-5.5-4.5-7.2c-1.6-2.8-4.6-2.2-3.3,0.3c1.4,2.6,1.5,3.3,0.9,3.7c-1.1,0.7-1.9,0-4.1-3.8c-1.6-2.8-3.5-1.6-2.2,1.2
			c1.3,2.8,2,4.2,3.1,5.9c1.1,1.9,1.4,3.1,0.1,3.7c-1.2,0.6-2.3-2.5-3.7-4.6c-1.6-2.4-2.9-5-3.5-6c-1.5-2.4-3.9-1.3-2.1,1.6
			c1.5,2.4,1.7,4.3-0.1,4.5c-1.8,0.2-3.4-6.7-5.5-5.3c-1.4,0.9-0.4,2.6,0.3,3.8c1,1.7,0.2,2.5-0.5,2.9c-1,0.5-2.2-1.1-2.8-2.1
			c-1.1-2.1-2.8-4.7-3.1-5.2c-0.8-1.2-2.8-0.5-2,1.3c0.9,2.2,3,5.1,0.7,6.1c-1.5,0.7-2.4-1.5-3.3-3.1c-1.6-2.8-4.1-1.9-2.7,0.5
			c1.4,2.6,1.5,3.2,0.9,3.6c-1.1,0.8-1.9,0.1-4.1-3.7c-1.6-2.7-3.5-1.5-2.2,1.3c1.4,2.8,2.1,4.1,3.2,5.9c1.2,1.9,2.7,4.8,1.3,5.4
			c-1.7,0.7-5.2-6.8-6.6-9.2c-1.5-2.4-3-4.9-3.7-6c-1.5-2.4-3.9-1.2-2.1,1.6c1.5,2.4,3.5,6.4,1.8,7.1c-1.8,0.7-4.6-7.5-6.7-6.1
			c-1.4,0.9-0.2,2.6,0.3,3.8c0.6,1.2,0.2,2.5-0.5,2.9c-1.5,0.8-2.7-4.6-4.4-3.8c-1.4,0.7,1.1,4.3,2.8,7.2c0.9,1.5,1.2,3,0.2,3.3
			c-2.6,0.8-4.8-7.6-6.4-7c-1.5,0.6,0.8,5.6,0.8,5.6c0.1,0.4,0.6,2-0.4,2.2c-1.9,0.4-6.1-10.2-6.9-11.9c-1.4-2.9-4.5-2.4-3.3,0.1
			c1.2,2.7,1.3,3.3,0.7,3.7c-1.1,0.7-1.9,0-3.9-4c-1.4-2.8-3.4-1.7-2.2,1.1c1.2,2.9,1.8,4.3,2.8,6c1.1,2,1.4,3.6,0.1,4.1
			c-1.2,0.5-2.2-2.6-3.5-4.8c-1.5-2.4-2.7-5.1-3.3-6.2c-1.4-2.5-3.8-1.4-2.2,1.5c1.4,2.4,3.9,7.8,1.8,8.7c-1.6,0.7-3.7-7.2-5.9-5.9
			c-1.4,0.8-0.7,2.7,0.1,3.8c6.2,8.7-0.3,11.5-4.2,0.1c-0.7-1.9,1.2-5.7-5.9-8.9c-1.9-0.9-4-2.6-3-3.3c1.1-0.7,3.3,0.7,4.1-0.3
			c1.1-1.4-2.6-3.2-1.5-4.3c1-0.9,1.9,0.6,2.8-0.1c0.3-0.3,0.3-0.6,0.2-0.9c0,0,0,0,0,0c0,0,0,0,0,0c0,0,0,0,0,0
			c0-0.1-0.1-0.2-0.2-0.3c0,0,0,0,0,0c0-0.1-0.1-0.1-0.1-0.2c-0.1-0.2-0.3-0.4-0.4-0.5c-1-1.2-4-3.6-3.2-5.4
			c0.9-1.9,1.3-6.3,2.8-7.8c1.1-1.2,3.6,1.1,5.2-0.2c1.3-1.1-4.5-4.2-3.3-5.4c1.4-1.5,4.9,0.7,6-0.4c0.9-0.9-5.3-3.9-4.1-5
			c1.3-1.2,2.9,0.4,4.2-0.8c0.8-0.8-3.2-3.7-2.2-5.1c0.9-1.3,2.2-0.6,3.1-1.4c0.7-0.7-1.7-2.5-0.8-3.7c1.1-1.4,2.2-0.6,3.4-1.8
			c0.8-0.8-1.5-2.5-0.8-3.6c0.9-1.4,2.4,0.2,3.5-1c0.9-1-3.3-1.9-2.4-3.1c0.6-0.7,2.4-7.1,3.6-8.2c1.3-1.3,3,0.8,4.3-0.6
			c1-1.2-3.9-3.7-3.1-4.9c1.1-1.7,2.2-1.1,3.2-1.9c0.8-0.7-3.1-2.8-2.2-4c0.8-1,2,0.1,2.6-0.7c0.7-1-3.5-4.8-2.7-5.9
			c1-1.5,3.1,1.6,4.8,0.1c1.2-1.1-4.5-4.5-3.3-5.7c1.2-1.2,4.1,1,5.6-0.3c1-0.8-4.6-4.3-3.5-5.7c0.9-1.2,4.6,0.9,5.5,0.1
			c1-0.9-4.5-5.5-3.4-6.6c0.8-0.8,4.7,2.3,5.7,1.3c0.7-0.6-5.1-7.5-4.6-8.5c0.5-1.1,3.5-0.2,3.8-0.9c0.8-2.4-3.7-6.5-2-9.6
			c1.7-3.1,0.5-4.1-0.7-2.2c-1.2,1.9-11.4,43.4-12.3,45.1c-0.9,1.6-1.6,3.6-2.3,5.6c-0.8,2.1-20.8,53.5-20.7,55.3c0,0,0,0,0,0
			c-0.8,3.1-1.4,8.1-2.1,10.6C50.1,261,49.2,262.9,49.2,264.3z M206.9,257.1c2-1.2,3.5,2.6,2,3.6
			C207.3,261.6,205.1,258.1,206.9,257.1z M198.9,255.7c2.4-1.8,7.1,6,4.7,7.7C201.2,265.1,197.6,256.7,198.9,255.7z M194.9,260.8
			c1.4-1,3.3,2.5,2.1,3.3C195.7,265,193.3,262,194.9,260.8z M191.8,255.6c0.9-0.7,3.2,2,1.8,3.1
			C192.5,259.5,190.6,256.4,191.8,255.6z M188.3,261.1c2-0.3,2.9,3,1.2,3.3C187.9,264.6,186.6,261.4,188.3,261.1z M182.8,262.7
			c1.5-0.4,3.8,2.8,1.5,3.4C182.5,266.6,180.9,263.2,182.8,262.7z M178.4,255.4c1.4-0.9,3.9,2.3,2.2,3.4
			C178.6,260.1,176.6,256.5,178.4,255.4z M176.2,263.3c2.3-0.9,3.9,3.4,1.3,3.6C175.8,267,174.8,263.9,176.2,263.3z M172.5,256.6
			c1.5-1.1,3.6,2.3,2,3.3C172.9,261,170.9,257.8,172.5,256.6z M169.9,264.1c1.4-0.9,4.1,2.5,1.4,4.1
			C169.6,269.2,168.5,265.1,169.9,264.1z M164.4,265.9c1.5-0.9,3.1,2.7,1.8,3.4C165,270,162.8,266.9,164.4,265.9z M158.4,266.6
			c1.5-0.9,3.1,2.7,1.8,3.4C159,270.8,156.8,267.6,158.4,266.6z M155.7,261c1-0.6,3.1,2.2,1.6,3.2
			C156.1,264.9,154.4,261.7,155.7,261z M153.1,268.1c2-0.1,2.7,3.2,1,3.3C152.4,271.6,151.3,268.2,153.1,268.1z M147.7,272.7
			c-1.8,0.4-3.1-3.1-1.3-3.5C148,268.8,150,272.2,147.7,272.7z M143.8,263.2c1.5-0.8,3.7,2.6,1.9,3.6
			C143.8,267.8,142.1,264.2,143.8,263.2z M138.1,264.8c1.6-1,3.4,2.5,1.8,3.4C138.2,269.2,136.5,265.9,138.1,264.8z M131.4,266
			c2.5-1.7,9.6,8.1,5.3,8.8C133.8,275.3,130,266.9,131.4,266z M128.9,272.7c1.4-1,3.1,2.6,1.9,3.4
			C129.6,276.9,127.4,273.8,128.9,272.7z M125.1,265.7c1-0.6,3.1,2.2,1.6,3.2C125.6,269.7,123.8,266.6,125.1,265.7z M123.7,274.3
			c2-0.2,2.7,3.1,1,3.3C123.1,277.7,121.9,274.4,123.7,274.3z M117.2,274.7c1.6-0.4,3.6,3,1.3,3.5
			C116.7,278.6,115.3,275.1,117.2,274.7z M113.8,268.9c1.5-0.8,3.8,2.5,2,3.5C113.9,273.6,112,269.9,113.8,268.9z M110.8,276
			c2.3-0.8,3.8,3.5,1.1,3.6C110.2,279.7,109.4,276.5,110.8,276z M107.9,269.7c1.6-1.1,3.5,2.5,1.8,3.4
			C108.1,274.1,106.2,270.8,107.9,269.7z M104.4,276.3c1.4-0.8,4,2.7,1.2,4.1C103.9,281.3,102.9,277.1,104.4,276.3z M99.1,277.6
			c1.5-0.9,3,2.8,1.7,3.5C99.5,281.8,97.5,278.6,99.1,277.6z M95.1,282c-1.3,0.7-3.4-2.5-1.7-3.5C94.9,277.7,96.4,281.3,95.1,282z
			 M91,272.6c1-0.6,3,2.4,1.4,3.2C91.2,276.6,89.7,273.3,91,272.6z M88.4,279c2,0,2.5,3.3,0.8,3.4C87.6,282.4,86.6,279,88.4,279z
			 M83,284c-1.8,0.3-3-3.2-1.1-3.5C83.5,280.2,85.3,283.7,83,284z M78.9,275c1.5-0.7,3.6,2.7,1.8,3.6
			C78.7,279.7,77.1,275.9,78.9,275z M75.3,281.2c2.3-0.6,3.5,3.8,0.9,3.7C74.5,284.9,73.9,281.6,75.3,281.2z M66.2,279.7
			c2.5,0.1,7,9.5,4.7,9.9C67.5,290.1,62.6,279.6,66.2,279.7z M59.4,265.5c1.6-0.9,3.3,2.7,1.6,3.5C59.3,269.9,57.7,266.5,59.4,265.5
			z M76,192.7c0.4-0.8,1.3-1.5,1.9-1.3c0.5,0.2,0.1,1.2-0.4,2.2c-0.3,0.8-0.9,0.9-1.3,0.7C75.7,194.2,75.6,193.5,76,192.7z
			 M73.9,198.6c0.3-0.8,1-1.2,1.7-1c0.7,0.2,0.2,1.2-0.3,2.1c0,0-0.5,1.3-1.2,1C73.5,200.4,73.6,199.4,73.9,198.6z M71.5,204.2
			c0.3-1.2,1.5-1.6,2.1-1.4c0.7,0.2,0.1,1.6-0.2,2.4c-0.2,0.4-0.9,1.7-1.7,1.3C70.9,206.2,71.2,205.4,71.5,204.2z M69.4,209.9
			c0.3-1,1.1-1.3,1.9-1.1c0.8,0.2,0.3,1.2-0.1,2.1c-0.2,0.6-0.9,1.6-1.7,1.3C68.8,212.1,69.1,211,69.4,209.9z M67.4,215.4
			c0.4-1,1-1.1,1.9-1c0.7,0.1,0.1,1.2-0.1,2c-0.3,0.8-0.9,1.5-1.7,1.1C66.6,217.2,67,216.4,67.4,215.4z M65.3,221.2
			c0.4-1.1,1.2-1.3,1.9-1.1c0.6,0.1,0,1.3-0.1,2.2c-0.2,0.9-0.9,1.2-1.6,0.9C64.8,223,64.9,222.3,65.3,221.2z M63.1,226.7
			c0.4-1.2,1.2-1,1.8-0.9c0.6,0.2,0.3,1.2-0.1,2c0,0-0.6,1.6-1.5,1.4S62.7,227.9,63.1,226.7z M61,232.4c0.4-1,1.1-1.1,1.9-0.9
			c0.7,0.3,0.3,1.1-0.1,1.9c0,0-0.9,1.7-1.7,1.3C60.4,234.4,60.6,233.5,61,232.4z M59,238.3c0.6-1.2,1.1-1.1,1.7-0.9
			c0.7,0.2,0.3,1.1,0,1.8c0,0-0.9,1.9-1.8,1.5C58.1,240.2,58.4,239.5,59,238.3z M56.9,244.8c0.7-2.4,3.1-3.3,2.1,0.1
			c-0.2,0.9-1.2,1.5-1.8,1.4c-0.1-0.1-0.2-0.2-0.3-0.3C56.7,245.7,56.7,245.4,56.9,244.8z"/>
	</g>
</g>
</svg>
