<svg id="ecAEWKuYeMi1" xmlns="http://www.w3.org/2000/svg" xmlns:xlink="http://www.w3.org/1999/xlink" viewBox="0 0 1154.4 407.4" shape-rendering="geometricPrecision" text-rendering="geometricPrecision">
<style><![CDATA[
#ecAEWKuYeMi2 {animation: ecAEWKuYeMi2_c_o 3000ms linear 1 normal forwards}@keyframes ecAEWKuYeMi2_c_o { 0% {opacity: 0} 33.333333% {opacity: 0} 76.666667% {opacity: 1} 100% {opacity: 1}} #ecAEWKuYeMi3 {animation: ecAEWKuYeMi3_c_o 3000ms linear 1 normal forwards}@keyframes ecAEWKuYeMi3_c_o { 0% {opacity: 0} 50% {opacity: 0} 100% {opacity: 1}} #ecAEWKuYeMi4 {animation: ecAEWKuYeMi4_c_o 3000ms linear 1 normal forwards}@keyframes ecAEWKuYeMi4_c_o { 0% {opacity: 0} 36.666667% {opacity: 1} 100% {opacity: 1}} #ecAEWKuYeMi5 {animation: ecAEWKuYeMi5_c_o 3000ms linear 1 normal forwards}@keyframes ecAEWKuYeMi5_c_o { 0% {opacity: 0} 43.333333% {opacity: 1} 100% {opacity: 1}} #ecAEWKuYeMi6 {animation: ecAEWKuYeMi6_c_o 3000ms linear 1 normal forwards}@keyframes ecAEWKuYeMi6_c_o { 0% {opacity: 0} 23.333333% {opacity: 1} 100% {opacity: 1}} #ecAEWKuYeMi7 {animation: ecAEWKuYeMi7_c_o 3000ms linear 1 normal forwards}@keyframes ecAEWKuYeMi7_c_o { 0% {opacity: 0} 33.333333% {opacity: 1} 100% {opacity: 1}} #ecAEWKuYeMi8 {animation: ecAEWKuYeMi8_c_o 3000ms linear 1 normal forwards}@keyframes ecAEWKuYeMi8_c_o { 0% {opacity: 0} 23.333333% {opacity: 1} 100% {opacity: 1}} #ecAEWKuYeMi9 {animation: ecAEWKuYeMi9_c_o 3000ms linear 1 normal forwards}@keyframes ecAEWKuYeMi9_c_o { 0% {opacity: 0} 50% {opacity: 1} 100% {opacity: 1}} #ecAEWKuYeMi10 {animation: ecAEWKuYeMi10_c_o 3000ms linear 1 normal forwards}@keyframes ecAEWKuYeMi10_c_o { 0% {opacity: 1} 23.333333% {opacity: 0} 100% {opacity: 0}} #ecAEWKuYeMi11 {animation: ecAEWKuYeMi11_c_o 3000ms linear 1 normal forwards}@keyframes ecAEWKuYeMi11_c_o { 0% {opacity: 0} 43.333333% {opacity: 1} 100% {opacity: 1}} #ecAEWKuYeMi12 {animation: ecAEWKuYeMi12_c_o 3000ms linear 1 normal forwards}@keyframes ecAEWKuYeMi12_c_o { 0% {opacity: 0} 16.666667% {opacity: 1} 100% {opacity: 1}} #ecAEWKuYeMi13 {animation: ecAEWKuYeMi13_c_o 3000ms linear 1 normal forwards}@keyframes ecAEWKuYeMi13_c_o { 0% {opacity: 0} 30% {opacity: 1} 100% {opacity: 1}} #ecAEWKuYeMi14 {animation: ecAEWKuYeMi14_c_o 3000ms linear 1 normal forwards}@keyframes ecAEWKuYeMi14_c_o { 0% {opacity: 0} 46.666667% {opacity: 1} 100% {opacity: 1}} #ecAEWKuYeMi15 {animation: ecAEWKuYeMi15_c_o 3000ms linear 1 normal forwards}@keyframes ecAEWKuYeMi15_c_o { 0% {opacity: 0} 20% {opacity: 1} 100% {opacity: 1}} #ecAEWKuYeMi16 {animation: ecAEWKuYeMi16_c_o 3000ms linear 1 normal forwards}@keyframes ecAEWKuYeMi16_c_o { 0% {opacity: 0} 30% {opacity: 1} 100% {opacity: 1}} #ecAEWKuYeMi17 {animation: ecAEWKuYeMi17_c_o 3000ms linear 1 normal forwards}@keyframes ecAEWKuYeMi17_c_o { 0% {opacity: 0} 3.333333% {opacity: 1} 100% {opacity: 1}} #ecAEWKuYeMi18 {animation: ecAEWKuYeMi18_c_o 3000ms linear 1 normal forwards}@keyframes ecAEWKuYeMi18_c_o { 0% {opacity: 0} 30% {opacity: 1} 100% {opacity: 1}} #ecAEWKuYeMi19 {animation: ecAEWKuYeMi19_c_o 3000ms linear 1 normal forwards}@keyframes ecAEWKuYeMi19_c_o { 0% {opacity: 0} 20% {opacity: 1} 100% {opacity: 1}} #ecAEWKuYeMi20 {animation: ecAEWKuYeMi20_c_o 3000ms linear 1 normal forwards}@keyframes ecAEWKuYeMi20_c_o { 0% {opacity: 0} 36.666667% {opacity: 1} 100% {opacity: 1}} #ecAEWKuYeMi21 {animation: ecAEWKuYeMi21_c_o 3000ms linear 1 normal forwards}@keyframes ecAEWKuYeMi21_c_o { 0% {opacity: 0} 50% {opacity: 1} 100% {opacity: 1}} #ecAEWKuYeMi22 {animation: ecAEWKuYeMi22_c_o 3000ms linear 1 normal forwards}@keyframes ecAEWKuYeMi22_c_o { 0% {opacity: 0} 43.333333% {opacity: 1} 100% {opacity: 1}} #ecAEWKuYeMi23 {animation: ecAEWKuYeMi23_c_o 3000ms linear 1 normal forwards}@keyframes ecAEWKuYeMi23_c_o { 0% {opacity: 0} 53.333333% {opacity: 1} 100% {opacity: 1}} #ecAEWKuYeMi24 {animation: ecAEWKuYeMi24_c_o 3000ms linear 1 normal forwards}@keyframes ecAEWKuYeMi24_c_o { 0% {opacity: 0} 33.333333% {opacity: 1} 100% {opacity: 1}} #ecAEWKuYeMi25 {animation: ecAEWKuYeMi25_c_o 3000ms linear 1 normal forwards}@keyframes ecAEWKuYeMi25_c_o { 0% {opacity: 0} 40% {opacity: 1} 100% {opacity: 1}} #ecAEWKuYeMi26 {animation: ecAEWKuYeMi26_c_o 3000ms linear 1 normal forwards}@keyframes ecAEWKuYeMi26_c_o { 0% {opacity: 0} 13.333333% {opacity: 1} 100% {opacity: 1}} #ecAEWKuYeMi27 {animation: ecAEWKuYeMi27_c_o 3000ms linear 1 normal forwards}@keyframes ecAEWKuYeMi27_c_o { 0% {opacity: 0} 23.333333% {opacity: 1} 100% {opacity: 1}} #ecAEWKuYeMi28 {animation: ecAEWKuYeMi28_c_o 3000ms linear 1 normal forwards}@keyframes ecAEWKuYeMi28_c_o { 0% {opacity: 0} 23.333333% {opacity: 1} 100% {opacity: 1}}
]]></style>
<path id="ecAEWKuYeMi2" d="M572.3,165.7l1.3.3c2,0,3-1.3,3-2.7c0-1.3-1-2.7-2.4-3-4.7-1.3-17.5-3-34.7-4.4c25.6-38.8,61.3-84.3,107.8-134.5.7-.7,1-1.3,1-2c0-1.3-1.7-3-3-3-.7,0-1.3.3-2,1-39.4,42.5-78.9,89-110.9,137.8-29.7-2-69.4-4-100.4-4h-7c38.1-49.5,77.2-94.7,111.2-127.4.7-.7,1-1.3,1-2c0-1.7-1.3-3-3-3-.7,0-1.3.3-2,1-35.4,34-75.8,80.9-114.9,131.4-46.8,1-85.3,6.1-90,20.6-.3,1-.3,2.4-.3,3.4c0,4.7,1.7,10.4,2.7,14.5c2,8.1,5.1,18.2,5.1,32.4c0,19.2-5.4,45.8-24.3,83.6l-.3,1.3c0,2,1.7,3.4,3,3.4c1,0,1.7-.7,2.4-1.7c31.3-50.6,67.7-103.1,104.8-151.7h7.4c32,0,71.1,2,101.4,4C514,184.6,481,240.2,481,274.2c0,5.4,1,10.4,3,14.5.7,1.3,1.7,2,2.7,2s2-1,2-2.4l-.3-1.7c-1.7-3.4-2.4-7.4-2.4-12.1c0-32,35-90.3,49.9-112.9c16.8,1.4,30.3,2.7,36.4,4.1ZM330.6,273.8c7.4-21.2,10.1-38.4,10.1-51.9c0-24.3-8.1-37.4-8.1-45.8l.3-2.7c5.7-16.5,65.7-15.8,79.9-16.2-28.6,37.4-56.6,77.2-82.2,116.6Z" opacity="0" fill="#fff"/><path id="ecAEWKuYeMi3" d="M927.8,181.8c21.9-20.2,61.3-57,88-85.6c53.9-2.7,64.2-3.5,81.3-4.2c13.9-.5,24.2-.2,34,.2c2,0,3-1.3,3-2.4c0-1.3-1-2.3-3-2.4-15.4-.4-20.9-.7-35.6-.7-18.2,0-52.9,2.1-73.9,3.4c12.1-13.5,21.2-24.6,21.2-31c0-1.3-.3-2.4-1-3.4-1.3-1.7-3-2.4-5.1-2.4-14.8,0-48.5,37.7-49.9,38.4-44.8,2.7-88,6.7-122.3,12.5-1.7,0-2.7,1.3-2.7,2.4c0,1,1,2,2.4,2h1c32.4-5.4,73.5-7.8,115.6-10.4-26,28.6-54.6,60.3-72.5,94l-.5.9c0,0-.1,0-.1.1-11.8,7.4-75.5,48.5-95,48.5-1.3,0-2.7-.3-3.7-1-1.7-1-2.4-2.4-2.4-4.4c0-9.8,16.5-29.7,16.5-41.5c0-2-.3-4-1.3-5.4l-7.1-8.1c4-3.4,6.7-6.1,8.4-8.1c1.3-1.7,2.7-4,2.7-5.7c0-1.3-1-2.7-3.4-2.7-4.4,0-15.2,7.4-15.2,13.8v1c-4.7,3.7-9.8,8.1-16.9,12.8-.2.1-.3.2-.4.4-.2.1-.4.2-.6.3-15.5,10.8-66.1,44.1-81.6,44.1-3,0-5.1-2-5.1-5.7c0-9.1,12.1-25.3,23.9-42.1l.7-1.7c0-1.3-1.7-3-3-3-.7,0-1.3.3-2,.7C708,197.5,661.9,236,646.4,236c-2.7,0-5.1-2.4-5.1-5.1c0-12.1,27-39.8,46.2-39.8c4.7,0,9.1,1.7,12.5,5.4.7,1,1.7,1.3,2.4,1.3c1.7,0,3-1.3,3-3l-.7-2c-4.4-5.1-10.4-7.4-16.5-7.4-9.6,0-20.3,5-29.5,12.1-20,12.2-69.3,42.1-92.1,42.1h-1.3c-4,0-7.4-.7-9.8-2.7-2.7-2-3.7-5.1-3.7-8.1c0-9.4,8.8-22.6,15.8-29.7c3,2.7,7.1,3.7,11.5,3.7c11.5,0,24.9-7.4,24.9-15.5c0-1.3-.3-2.4-.7-3.4-1.3-3.4-4.4-4.4-8.1-4.4-4,0-9.4,1.7-14.2,3.7-16.2,7.4-31.3,22.9-34.7,40.8-.3,2-.7,3.7-.7,5.4c0,4.7,1.7,9.1,6.1,12.1c3.4,2.4,7.4,3.7,12.5,3.7c21.2,0,55.9-19.1,80.4-34-5.5,6.9-8.9,14.1-8.9,19.9c0,5.7,4,10.1,10.4,10.1c16.9,0,49.9-26.6,63.4-37.7-7.1,10.8-12.5,20.9-12.5,28.6c0,5.7,3,9.8,9.1,9.8c20.2,0,70.4-34.4,86.3-45.5.2-.2.4-.5.6-.7c6.5-4.5,12.7-7.5,16.9-10.7l6.7,7.8c.3.7.7,1.7.7,2.7c0,8.4-16.5,28.3-16.5,41.1c0,3.7,1.3,7.1,4.7,9.1c1.7,1,3.7,1.3,6.1,1.3c21,0,71.1-32.3,92.3-46.3-4.2,9.1-6.7,17.6-6.7,24.7c0,5.7,1.7,10.4,5.4,14.2c4.4,4.4,11.1,6.4,19.2,6.4c30.8,0,80.6-27.2,105.6-42.4-8,11.1-14.6,22.8-14.6,30.9c0,3,1,5.7,3,7.8c1.7,1.3,3.7,2,6.1,2c13.8,0,36.1-21.6,43.8-29.3-8.8,14.5-21.2,34.4-35.4,54.9-41.1,12.8-82.6,43.8-105.8,80.9-6.1,9.8-11.5,21.2-11.5,29.7c0,3.7,1,6.7,3.7,8.8c2,1.3,4.4,2,7.1,2c31.3,0,97.7-98.1,110.2-116.3c3.4-2,24.6-6.4,48.5-6.4c15.8,0,33,2,47.2,7.8l1.7.3c1,0,1.3-.3,1.3-.7l.3-.7c0-1-1-1.3-1.3-1.7-13.8-7.4-32.7-9.4-49.5-9.4-20.6,0-38.4,3-43.8,4.4c20.9-31.3,38.4-60.3,43.8-71.4l.3-1.3c0-1.7-1.7-3-3.4-3-.7,0-1.3.3-2,1-4.7,5.7-20.9,23.6-36.1,35-5.1,4-14.2,9.8-18.9,9.8-1.7,0-3-.7-3.4-2.4v-1.7c0-8.1,10.1-24.3,24.3-41.5l.7-2c0-1.7-1.3-3-3-3-.7,0-1.7.3-2.4,1.3-1,1.2-2.1,2.5-3.2,3.9-18.2,11.4-80.2,47-113.1,47-6.4,0-12.1-1.7-15.5-5.1-2.7-2.7-4-6.4-4-10.8c0-7.8,3.4-17.2,9.1-27.6l16.2-15Zm-333.6,3.4c2.7,0,3.4.7,4,2.7c0,3.7-11.1,9.4-19.2,9.4-2.7,0-5.1-.7-6.7-2c2.3-2,15.5-10.1,21.9-10.1ZM924.4,384.7c-1.3,0-2.7-.3-3.7-.7-1.3-.7-2-2.4-2-4.4c0-6.1,4.7-16.2,9.4-23.9c21.6-35,58-63.4,96.4-77.2-12.8,18.3-75.1,106.2-100.1,106.2ZM1035.7,58.8c.7,0,1,0,1.3.3l.3,1c0,6.1-22.9,30-23.3,30.3l-18.5,1c2.1-2.2,32.4-32.6,40.2-32.6ZM989.1,97.9l18.5-1c-26.3,27-63.7,61.7-84.9,81.6c19.6-29.3,42.9-55,66.4-80.6Z" opacity="0" fill="#fff"/><path id="ecAEWKuYeMi4" d="M271.9,100.9c-16.3-8.5,47.6,47.4,61.1,32.7c13.5-14.8-34.5-18.9-61.1-32.7Z" opacity="0" fill="#fff"/><path id="ecAEWKuYeMi5" d="M271.7,84.2c3.7-9.9,13.6-18.1,16.8-24.2c1.9-3.6.3-8.9-5.3-8.6-11.7.6-23.1,63.4-11.5,32.8Z" opacity="0" fill="#fff"/><path id="ecAEWKuYeMi6" d="M278.9,98.8c-8-1.9,21.8,12.7,22.4,5.6.9-9.4-12.5-3.3-22.4-5.6Z" opacity="0" fill="#fff"/><path id="ecAEWKuYeMi7" d="M255.7,67.3c-8.7,3.8,3,12.6,5.7,22.4c2.2,8,.8-25.2-5.7-22.4Z" opacity="0" fill="#fff"/><path id="ecAEWKuYeMi8" d="M322.7,86.8c1.5-16.5-50.3,8.3-50.3,8.3c28.9-4.4,49,5.2,50.3-8.3Z" opacity="0" fill="#fff"/><path id="ecAEWKuYeMi9" d="M244.2,164.1c-.9.3.6,5.9,3.1,5.7c2.5-.3-.5-6.6-3.1-5.7Z" opacity="0" fill="#fff"/><path id="ecAEWKuYeMi10" d="M263.4,145.6c2.5-.6-1.4-6.4-3.8-5.2-.9.4,1.3,5.8,3.8,5.2Z" fill="#fff"/><path id="ecAEWKuYeMi11" d="M262.3,172.4c1.7-1.4-9.2-11.7-11.3-13.9s-7.6-11.7-9.6-9.9c-2,1.9,6.6,10.5,8.1,12.1c1.4,1.6,11.1,13.1,12.8,11.7Z" opacity="0" fill="#fff"/><path id="ecAEWKuYeMi12" d="M221.7,122.5c.5-.9-2.1-3.9-4.6-7.1-2.9-3.7-6-7.6-6.9-6.9s1.6,4.5,4.5,8.1c3,3.6,6.5,6.9,7,5.9Z" opacity="0" fill="#fff"/><path id="ecAEWKuYeMi13" d="M279,142.5c2.1-1.8-9.2-11.7-11.3-13.9s-7.4-11.9-9.8-9.7c-2.5,2.3,6.4,10.7,7.8,12.3c1.5,1.5,11.3,13.1,13.3,11.3Z" opacity="0" fill="#fff"/><path id="ecAEWKuYeMi14" d="M231.3,102.9c-1.7-1.9-6.3-9.8-7.8-8.6-2.2,1.8,5.4,9,6.6,10.3c3.1,3.8,5.4,2.9,1.2-1.7Z" opacity="0" fill="#fff"/><path id="ecAEWKuYeMi15" d="M220.4,98.8c-2.2,1.8,6.9,10.8,8.3,12.4c3.9,4.7,6.3,3.9,1.1-1.8-2.1-2.4-7.9-11.8-9.4-10.6Z" opacity="0" fill="#fff"/><path id="ecAEWKuYeMi16" d="M243.1,95.8c-1.3-1.6-7.2-10.6-9.1-9.1s6.7,9.8,8.7,12.1c2.2,2.6,4.5,2,.4-3Z" opacity="0" fill="#fff"/><path id="ecAEWKuYeMi17" d="M243.6,109.1c-1.2.9,2.7,6,3.5,6.9s2.6,2.8,3.1,1.9s1.2-1.6-2.2-5.3c-3.2-3.8-4.4-3.5-4.4-3.5Z" opacity="0" fill="#fff"/><path id="ecAEWKuYeMi18" d="M206.2,110.3c-.4.7-.8,1.2,1.7,4c2.6,2.8,3.4,2.6,3.4,2.6.8-.6-2.1-4.5-2.7-5.2-.7-.7-2-2.1-2.4-1.4Z" opacity="0" fill="#fff"/><path id="ecAEWKuYeMi19" d="M253.2,97.3c.7-1,1.5-1.8-1.3-4.8s-4.1-2.5-4.1-2.5c-1.4,1.1,1.7,5.3,2.4,6c.7.8,2.2,2.4,3,1.3Z" opacity="0" fill="#fff"/><path id="ecAEWKuYeMi20" d="M292.2,138.6c-2.3-2.9-13.4-14.3-16.9-17.7s-13.1-15-14.1-12.1s8.6,13.3,15,21.6s13.3,16.3,15.8,19.3-1.9,5-4.4,7.2-3,.8-5.9-1.4c-1.9-1.5-9.7-10.1-12.6-15-2.4-4-4.7-2.5-4-1.2c1.3,2.4,3.4,5.8,4.8,7.9.9,1.5-1,1.8-1.6,1.3-.6-.4-1.3-1.7-3-.5-1.6,1.1,1.7,2.6,5.6,6.6c3.9,3.9,6.4,6.2,4.8,4-1.7-2.2-3.8-5.5-5.4-7.5-1.5-2.1-.6-2.5.6-1.5s5,5.6,6.6,8s4.5,3.1,3.5,4.3c-3.5,3.3-4.3,3.1-6,4.4c0,0-2.1,1.5-3.1,2.4-1,.8-1-.5-1.5-1s-6.8-8.6-8.3-7.2s5.9,10.8,6.5,11.6s1.3,1.7.9,2.1-2.7,2.6-4.5,4.1c-.5.4-2.7,2.3-3.1,2.8s.8-.1.1,1-1.1.4-2.1-.6c-.9-.9-6.5-6.7-7-7.4s-2.6-3.6-3.4-3s1.6,4.1,2.1,4.9s3.7,5.4,7.3,8.6s21,26.2,23.5,29.3c2.7,3.4,1.1,6.1.4,9.5c0,0-14.2,48.9-14.8,53.7-.7.6-1.6.3-3.2-1.7-2.6-3.2,0-3.1-.8-4.5s-8.1-3.8-16.3-11c-8.2-7.3-14.8-14.2-16.8-13.3s6.3,10.3,13.1,17.5s14,14.1,15.3,15.5c1.4,1.3,3.3,2.3.2,2.6-29.7,3.5-219.7,21.7-224.4,21.7-4.6,0,52.2-179.9,66.1-218.5c1.5-4.2,3.9-1.6,5.7,1.3c4.1,7,33,50.8,35.7,48.6c1.9-1.5-5-7.6-15.3-21.7-10.4-14.1-15.2-31.8-15.8-32.9s-2.3,0-3.7-2s1.5-2.2,4.9-2.5c17-1.3,53.2,1.4,54.9-.7c2.1-2.7,20.7,22.8,20.7,22.8c1.2,1.8,10,12.4,12.9,17s10.8,15.4,15.2,19.5s4.5,1.8,2.4-1.3c-2.1-3-17.1-21.7-17.9-24.8-.8-3.2,3.5-6.1,6.7-7.7c2.8-1.5,2.7-.8,5.7,2.8c2.9,3.7,11.8,14.8,14.7,17.3s4.2,4.3,5.1,3.1c.9-1.3-4.3-6.6-7.7-11.5s-10.2-14.2-11-15.4s7.9-7.3,8.8-8c.9-.8,10.2,11.2,13.7,14.6c3.4,3.3,7.1,5.4,4.4.6-2.6-4.8-12.9-17.2-13.1-18.1-.3-.9,6.4-5.4,8.1-5.8c1-.3,5.6,6.3,6.7,7.6s3.2-.3,3.2-.3c1.6-1.3-3.7-7.2-5.1-8.8s-3.7-1.7-5.9-1.6c-2.2,0-8.3,5.5-9.8,6.7-1.1.9-.7,1.8-.4,2.3-.4-.6-1.1-1.4-2-.6-1.5,1.2-12,9.7-14.1,10.9s-9.6,5.9-9.9,6.2.3,1.9-1,.4-6.5-7.4-6.5-7.4c-4.4-4.9-18.4-22.2-20.2-24.3s-3.7-1.3-8.6-1.3c-4.9.1-51.1,2.5-54.4,2.8s-6.1-1.9-8.5,3.6c-2.4,5.6-17.7,60-29.4,92.4-12,32.5-43.4,134.8-44,136.6s-3.3,3.3-1.7,5.1s3.7-.9,8.2-.9s231.5-24.8,234.8-25.1c3.3-.4,6.6.8,4.9-5.2-1.7-5.9,13.8-57.8,13.8-57.8.7-5.2,2.4-4.6-1-9.4-3.5-4.8-20-25.7-21.2-27.1c0,0-1.3-2.9.8-4c2-1.1,2.1-1.7,5.2-4.3c1.4-1.2,25.7-21.4,28.2-23.6c2.5-2.3,1.6-3.8,1.6-5.2c0-1.2-5.5-6.7-7.8-9.7ZM225,86.9c.1.2,0-.1-.2-.4c0,.2.1.3.2.4Z" opacity="0" fill="#fff"/><path id="ecAEWKuYeMi21" d="M251.3,231c0,0-3.7-3.1-4.8-1.9-1.2,1.4,3.4,3.8,1.9,5.5-1.6,1.8-3.5-1.9-4.4-.5-1.3,1.9,3.5,3.4,2,5.5-1,1.3-3.8-2.6-5-1-1.2,1.7,3.4,4.1,2,5.7-.4.5-1.5.7-3.5-.9s-4.1-4-5.1-2.9c-1.1,1,4.9,6.6,7.7,9.1c2.8,2.4,15.1,14,21.4,18.1c1.9,1.2,2.8,1.5,2.9-.5c0-2,2.6-16.1,3.1-18.2c1.2-5.5,3.2-10.2,4.6-14.9s7.4-14.8,6.6-16.4c-.7-1.6-1.5-1.6-8.6-7-.8-.6-4.9-4.5-6-2.8-1.2,2,4.7,4.1,3.8,6.1-.7,1.5-6.7-4.9-8.4-3.2-2,2,10.3,7.7,8.9,10.7-.9,1.8-9.2-6.5-11-4.7-1.7,1.7,3.3,3.8,2.8,5.6-.7,2.1-4.2-2.4-5.6-.3-1.6,2.4,7,5.2,5.2,7.1-1.9,2-8.6-6.2-10.3-3.6s6.8,5.7,5.5,7.4c-.9.9-5.7-2-5.7-2Z" opacity="0" fill="#fff"/><path id="ecAEWKuYeMi22" d="M216.1,231c-1.6,1.6,6.9,14.1,10.3,11.4c2.6-2.1-8.8-13-10.3-11.4Z" opacity="0" fill="#fff"/><path id="ecAEWKuYeMi23" d="M150.2,81.9c-2.8-.7-27,.3-29.1.2l-2.3-.1c0,0-.2,0-.1,1.1c1.6,10.2,7.9,22.4,9.5,21.9s-4.5-14.9-4.9-16.5c-.3-1.5,3.3-.9,8.4-1.1c0,0,0,0,.1,0c3,.2,4.2,8.9,5.2,8.9s-.9-9.1.7-9.4c0,0,0,0-.1,0c12.5-1.4,15.2-4.4,12.6-5Z" opacity="0" fill="#fff"/><path id="ecAEWKuYeMi24" d="M127.7,89.6c0,0,1.8,4,2.9,3.5s.4-2.7-.1-3.7-2.8-1.1-2.8.2Z" opacity="0" fill="#fff"/><path id="ecAEWKuYeMi25" d="M84.8,190.9c-.7.3-1.8,1-1.4,2s2.7-.1,2.7-.1c.4-.9-.6-2.1-1.3-1.9Z" opacity="0" fill="#fff"/><path id="ecAEWKuYeMi26" d="M78.6,203.5c-1.2,2.1,1.6,2.6,2.3,1c.4-.7-1.1-3.1-2.3-1Z" opacity="0" fill="#fff"/><path id="ecAEWKuYeMi27" d="M63.3,243.3c-.5,2.5,2.7,2.1,3.1.7.7-2.3-2.6-3.1-3.1-.7Z" opacity="0" fill="#fff"/><path id="ecAEWKuYeMi28" d="M49.2,264.3c-1.9,7.2-6.8,27.1-8.3,31.5-1.7,5.1-1.5,4.8,1.2,4.4c2.3-.3,16.3-1.6,22.2-2.2.4.1,1.1,0,2.3-.3.4-.1.7-.1,1-.2c8.2-1.3,60-7,81.4-9.6c5-.6,12-1,20.1-2.4.5.7,1.4.9,3.3.2.5-.2,1.5-.4,3.1-.6c1.6-.1,2.7-.2,3-.3c14.5-1.4,48.9-2.7,50.6-3.3c2.1-.8,3-.3,2-2.8s-22.6-31.8-25.1-30.3c-1.4.8.6,4.2.5,5.5-.1,1.7-2,1.4-2.6.6-2.8-4-4.7-6.2-5.4-7.4-1-2-4-1.7-2.3,1.8c1,2.1,1.4,4.4.5,4.9-1.1.5-3.9-3.3-5-4.9-1.7-2.7-3.6-1.3-2.7.6.9,1.8,2.9,5.2,2.3,5.6-1.6,1-4.4-3.9-6.8-7.7-1.7-2.7-3.6-1.3-2.1,1.4s2.3,4,3.4,5.7c1.3,1.8,1.6,3,.3,3.7-1.2.7-2.4-2.3-4-4.4-1.8-2.3-3.2-4.8-3.9-5.8-1.6-2.3-4-1-2,1.7c1.6,2.3,1.9,4.2.2,4.5-1.8.4-3.9-6.7-5.9-5-.7.7-.2,1.7-.2,1.7c1.1,1.6.3,2.5-.4,2.9-1.4.9-3.1-3.3-4-2.6-1.9,1.3,1.6,4,2.4,6.6.6,1.9.9,3-.1,3s-3.3-7.6-6.1-7c-2.1.5.9,5.9,1.1,6.3c1.9,3.1,0,3.5-1.7,1.4-.8-1-3.6-5.5-4.5-7.2-1.6-2.8-4.6-2.2-3.3.3c1.4,2.6,1.5,3.3.9,3.7-1.1.7-1.9,0-4.1-3.8-1.6-2.8-3.5-1.6-2.2,1.2s2,4.2,3.1,5.9c1.1,1.9,1.4,3.1.1,3.7-1.2.6-2.3-2.5-3.7-4.6-1.6-2.4-2.9-5-3.5-6-1.5-2.4-3.9-1.3-2.1,1.6c1.5,2.4,1.7,4.3-.1,4.5s-3.4-6.7-5.5-5.3c-1.4.9-.4,2.6.3,3.8c1,1.7.2,2.5-.5,2.9-1,.5-2.2-1.1-2.8-2.1-1.1-2.1-2.8-4.7-3.1-5.2-.8-1.2-2.8-.5-2,1.3.9,2.2,3,5.1.7,6.1-1.5.7-2.4-1.5-3.3-3.1-1.6-2.8-4.1-1.9-2.7.5c1.4,2.6,1.5,3.2.9,3.6-1.1.8-1.9.1-4.1-3.7-1.6-2.7-3.5-1.5-2.2,1.3c1.4,2.8,2.1,4.1,3.2,5.9c1.2,1.9,2.7,4.8,1.3,5.4-1.7.7-5.2-6.8-6.6-9.2-1.5-2.4-3-4.9-3.7-6-1.5-2.4-3.9-1.2-2.1,1.6c1.5,2.4,3.5,6.4,1.8,7.1-1.8.7-4.6-7.5-6.7-6.1-1.4.9-.2,2.6.3,3.8.6,1.2.2,2.5-.5,2.9-1.5.8-2.7-4.6-4.4-3.8-1.4.7,1.1,4.3,2.8,7.2.9,1.5,1.2,3,.2,3.3-2.6.8-4.8-7.6-6.4-7-1.5.6.8,5.6.8,5.6.1.4.6,2-.4,2.2-1.9.4-6.1-10.2-6.9-11.9-1.4-2.9-4.5-2.4-3.3.1c1.2,2.7,1.3,3.3.7,3.7-1.1.7-1.9,0-3.9-4-1.4-2.8-3.4-1.7-2.2,1.1c1.2,2.9,1.8,4.3,2.8,6c1.1,2,1.4,3.6.1,4.1-1.2.5-2.2-2.6-3.5-4.8-1.5-2.4-2.7-5.1-3.3-6.2-1.4-2.5-3.8-1.4-2.2,1.5c1.4,2.4,3.9,7.8,1.8,8.7-1.6.7-3.7-7.2-5.9-5.9-1.4.8-.7,2.7.1,3.8c6.2,8.7-.3,11.5-4.2.1-.7-1.9,1.2-5.7-5.9-8.9-1.9-.9-4-2.6-3-3.3c1.1-.7,3.3.7,4.1-.3c1.1-1.4-2.6-3.2-1.5-4.3c1-.9,1.9.6,2.8-.1.3-.3.3-.6.2-.9v0v0v0c0-.1-.1-.2-.2-.3v0c0-.1-.1-.1-.1-.2-.1-.2-.3-.4-.4-.5-1-1.2-4-3.6-3.2-5.4.9-1.9,1.3-6.3,2.8-7.8c1.1-1.2,3.6,1.1,5.2-.2c1.3-1.1-4.5-4.2-3.3-5.4c1.4-1.5,4.9.7,6-.4.9-.9-5.3-3.9-4.1-5c1.3-1.2,2.9.4,4.2-.8.8-.8-3.2-3.7-2.2-5.1.9-1.3,2.2-.6,3.1-1.4.7-.7-1.7-2.5-.8-3.7c1.1-1.4,2.2-.6,3.4-1.8.8-.8-1.5-2.5-.8-3.6.9-1.4,2.4.2,3.5-1c.9-1-3.3-1.9-2.4-3.1.6-.7,2.4-7.1,3.6-8.2c1.3-1.3,3,.8,4.3-.6c1-1.2-3.9-3.7-3.1-4.9c1.1-1.7,2.2-1.1,3.2-1.9.8-.7-3.1-2.8-2.2-4c.8-1,2,.1,2.6-.7.7-1-3.5-4.8-2.7-5.9c1-1.5,3.1,1.6,4.8.1c1.2-1.1-4.5-4.5-3.3-5.7s4.1,1,5.6-.3c1-.8-4.6-4.3-3.5-5.7.9-1.2,4.6.9,5.5.1c1-.9-4.5-5.5-3.4-6.6.8-.8,4.7,2.3,5.7,1.3.7-.6-5.1-7.5-4.6-8.5.5-1.1,3.5-.2,3.8-.9.8-2.4-3.7-6.5-2-9.6s.5-4.1-.7-2.2-11.4,43.4-12.3,45.1c-.9,1.6-1.6,3.6-2.3,5.6-.8,2.1-20.8,53.5-20.7,55.3v0c-.8,3.1-1.4,8.1-2.1,10.6-1,2-1.9,3.9-1.9,5.3Zm157.7-7.2c2-1.2,3.5,2.6,2,3.6-1.6.9-3.8-2.6-2-3.6Zm-8-1.4c2.4-1.8,7.1,6,4.7,7.7s-6-6.7-4.7-7.7Zm-4,5.1c1.4-1,3.3,2.5,2.1,3.3-1.3.9-3.7-2.1-2.1-3.3Zm-3.1-5.2c.9-.7,3.2,2,1.8,3.1-1.1.8-3-2.3-1.8-3.1Zm-3.5,5.5c2-.3,2.9,3,1.2,3.3-1.6.2-2.9-3-1.2-3.3Zm-5.5,1.6c1.5-.4,3.8,2.8,1.5,3.4-1.8.5-3.4-2.9-1.5-3.4Zm-4.4-7.3c1.4-.9,3.9,2.3,2.2,3.4-2,1.3-4-2.3-2.2-3.4Zm-2.2,7.9c2.3-.9,3.9,3.4,1.3,3.6-1.7.1-2.7-3-1.3-3.6Zm-3.7-6.7c1.5-1.1,3.6,2.3,2,3.3-1.6,1.1-3.6-2.1-2-3.3Zm-2.6,7.5c1.4-.9,4.1,2.5,1.4,4.1-1.7,1-2.8-3.1-1.4-4.1Zm-5.5,1.8c1.5-.9,3.1,2.7,1.8,3.4-1.2.7-3.4-2.4-1.8-3.4Zm-6,.7c1.5-.9,3.1,2.7,1.8,3.4-1.2.8-3.4-2.4-1.8-3.4Zm-2.7-5.6c1-.6,3.1,2.2,1.6,3.2-1.2.7-2.9-2.5-1.6-3.2Zm-2.6,7.1c2-.1,2.7,3.2,1,3.3-1.7.2-2.8-3.2-1-3.3Zm-5.4,4.6c-1.8.4-3.1-3.1-1.3-3.5c1.6-.4,3.6,3,1.3,3.5Zm-3.9-9.5c1.5-.8,3.7,2.6,1.9,3.6-1.9,1-3.6-2.6-1.9-3.6Zm-5.7,1.6c1.6-1,3.4,2.5,1.8,3.4-1.7,1-3.4-2.3-1.8-3.4Zm-6.7,1.2c2.5-1.7,9.6,8.1,5.3,8.8-2.9.5-6.7-7.9-5.3-8.8Zm-2.5,6.7c1.4-1,3.1,2.6,1.9,3.4s-3.4-2.3-1.9-3.4Zm-3.8-7c1-.6,3.1,2.2,1.6,3.2-1.1.8-2.9-2.3-1.6-3.2Zm-1.4,8.6c2-.2,2.7,3.1,1,3.3-1.6.1-2.8-3.2-1-3.3Zm-6.5.4c1.6-.4,3.6,3,1.3,3.5-1.8.4-3.2-3.1-1.3-3.5Zm-3.4-5.8c1.5-.8,3.8,2.5,2,3.5-1.9,1.2-3.8-2.5-2-3.5Zm-3,7.1c2.3-.8,3.8,3.5,1.1,3.6-1.7.1-2.5-3.1-1.1-3.6Zm-2.9-6.3c1.6-1.1,3.5,2.5,1.8,3.4-1.6,1-3.5-2.3-1.8-3.4Zm-3.5,6.6c1.4-.8,4,2.7,1.2,4.1-1.7.9-2.7-3.3-1.2-4.1Zm-5.3,1.3c1.5-.9,3,2.8,1.7,3.5s-3.3-2.5-1.7-3.5Zm-4,4.4c-1.3.7-3.4-2.5-1.7-3.5c1.5-.8,3,2.8,1.7,3.5ZM91,272.6c1-.6,3,2.4,1.4,3.2-1.2.8-2.7-2.5-1.4-3.2ZM88.4,279c2,0,2.5,3.3.8,3.4-1.6,0-2.6-3.4-.8-3.4ZM83,284c-1.8.3-3-3.2-1.1-3.5c1.6-.3,3.4,3.2,1.1,3.5Zm-4.1-9c1.5-.7,3.6,2.7,1.8,3.6-2,1.1-3.6-2.7-1.8-3.6Zm-3.6,6.2c2.3-.6,3.5,3.8.9,3.7-1.7,0-2.3-3.3-.9-3.7Zm-9.1-1.5c2.5.1,7,9.5,4.7,9.9-3.4.5-8.3-10-4.7-9.9Zm-6.8-14.2c1.6-.9,3.3,2.7,1.6,3.5-1.7.9-3.3-2.5-1.6-3.5ZM76,192.7c.4-.8,1.3-1.5,1.9-1.3.5.2.1,1.2-.4,2.2-.3.8-.9.9-1.3.7-.5-.1-.6-.8-.2-1.6Zm-2.1,5.9c.3-.8,1-1.2,1.7-1s.2,1.2-.3,2.1c0,0-.5,1.3-1.2,1-.6-.3-.5-1.3-.2-2.1Zm-2.4,5.6c.3-1.2,1.5-1.6,2.1-1.4.7.2.1,1.6-.2,2.4-.2.4-.9,1.7-1.7,1.3-.8-.3-.5-1.1-.2-2.3Zm-2.1,5.7c.3-1,1.1-1.3,1.9-1.1s.3,1.2-.1,2.1c-.2.6-.9,1.6-1.7,1.3-.7-.1-.4-1.2-.1-2.3Zm-2,5.5c.4-1,1-1.1,1.9-1c.7.1.1,1.2-.1,2-.3.8-.9,1.5-1.7,1.1-.9-.3-.5-1.1-.1-2.1Zm-2.1,5.8c.4-1.1,1.2-1.3,1.9-1.1.6.1,0,1.3-.1,2.2-.2.9-.9,1.2-1.6.9-.7-.2-.6-.9-.2-2Zm-2.2,5.5c.4-1.2,1.2-1,1.8-.9.6.2.3,1.2-.1,2c0,0-.6,1.6-1.5,1.4s-.6-1.3-.2-2.5ZM61,232.4c.4-1,1.1-1.1,1.9-.9.7.3.3,1.1-.1,1.9c0,0-.9,1.7-1.7,1.3-.7-.3-.5-1.2-.1-2.3Zm-2,5.9c.6-1.2,1.1-1.1,1.7-.9.7.2.3,1.1,0,1.8c0,0-.9,1.9-1.8,1.5-.8-.5-.5-1.2.1-2.4Zm-2.1,6.5c.7-2.4,3.1-3.3,2.1.1-.2.9-1.2,1.5-1.8,1.4-.1-.1-.2-.2-.3-.3-.2-.3-.2-.6,0-1.2Z" opacity="0" fill="#fff"/></svg>
