<?xml version="1.0" encoding="utf-8"?>
<!-- Generator: Adobe Illustrator 24.0.1, SVG Export Plug-In . SVG Version: 6.00 Build 0)  -->
<svg version="1.1" id="logo" xmlns="http://www.w3.org/2000/svg" xmlns:xlink="http://www.w3.org/1999/xlink" x="0px" y="0px"
	 viewBox="0 0 600.9 600" style="enable-background:new 0 0 600.9 600;" xml:space="preserve">
<style type="text/css">
	.st0{fill:#FFFFFF;}

	#exterior{
		animation:rotate-center 8s infinite linear;
		transform-origin: 0,0
	} 

	@keyframes rotate-center{0%{transform:rotate(0);transform-origin:center}100%{transform:rotate(360deg);transform-origin:center}}

</style>
<g id="interior">
	<path class="st0" d="M295,184.3c-15,6.9,60-7.6,57-25.3C349,141.2,319.5,173,295,184.3z"/>
	<path class="st0" d="M283,175.2c-5-8.1-5.3-19.7-7.9-25.3c-1.5-3.4-6.1-5.1-9-1C260,157.5,298.4,200.4,283,175.2z"/>
	<path class="st0" d="M297.4,178.1c-5.8,4.7,21.1-8.5,16.4-12.8C307.6,159.5,304.5,172.4,297.4,178.1z"/>
	<path class="st0" d="M262.2,177.2c-2.1,8.2,10.6,4.8,19.1,8.3C288.1,188.4,263.8,171.1,262.2,177.2z"/>
	<path class="st0" d="M313.1,140.4c-10.9-10.2-21.9,40.3-21.9,40.3C304,157.7,322,148.8,313.1,140.4z"/>
	<path class="st0" d="M324.6,239c-0.3,0.8,4.5,2.8,5.7,0.9C331.6,238,325.4,236.6,324.6,239z"/>
	<path class="st0" d="M322.1,215.1c1-2.1-5.3-2.6-5.8-0.2C316.1,215.7,321.1,217.1,322.1,215.1z"/>
	<path class="st0" d="M340.5,230.7c-0.1-2-13.4,0.1-16.1,0.3c-2.7,0.3-12.5-1-12.3,1.3c0.2,2.5,11.1,1.1,13,1
		C327,233.1,340.6,232.6,340.5,230.7z"/>
	<path class="st0" d="M282.6,231.9c-0.4-0.8-3.9-0.7-7.6-0.6c-4.3,0-8.7,0-8.8,1.1c0,1,4.1,1.4,8.2,1.3
		C278.7,233.5,283,232.9,282.6,231.9z"/>
	<path class="st0" d="M328.5,202.2c-0.1-2.5-13.4,0-16.1,0.3c-2.7,0.3-12.5-1.3-12.3,1.6c0.2,3.1,11.1,1.4,13.1,1.3
		C315.1,205.2,328.6,204.7,328.5,202.2z"/>
	<path class="st0" d="M274,214.2c-2.3,0.2-10.5-0.9-10.4,0.8c0.1,2.6,9.4,1.1,11,1C279,215.9,279.6,213.8,274,214.2z"/>
	<path class="st0" d="M265,219.8c0.1,2.6,11.5,1,13.4,1c5.5-0.2,6.2-2.3-0.7-1.8C274.9,219.1,265,218,265,219.8z"/>
	<path class="st0" d="M275.5,201.9c-1.9,0-11.5-0.8-11.5,1.4c0,2.2,10.6,0.6,13.4,0.5C280.5,203.7,281.2,201.8,275.5,201.9z"/>
	<path class="st0" d="M285.2,208.9c0,1.3,5.7,1.4,6.8,1.3s3.4-0.3,3.1-1.2c-0.4-0.9-0.5-1.8-5-1.4
		C285.6,207.9,285.2,208.9,285.2,208.9z"/>
	<path class="st0" d="M265.3,236.2c0.3,0.7,0.4,1.2,3.8,1c3.4-0.2,3.7-0.9,3.7-0.9c0-0.9-4.4-1-5.2-0.9
		C266.8,235.4,265.1,235.5,265.3,236.2z"/>
	<path class="st0" d="M282.1,195.6c-0.3-1.1-0.4-2.1-4.1-1.7c-3.7,0.4-4,1.5-4,1.5c0,1.6,4.7,1.7,5.6,1.6
		C280.5,196.9,282.4,196.7,282.1,195.6z"/>
	<path class="st0" d="M333.1,190.7c-3.3,0-17.6,1.6-21.9,2.2c-4.4,0.6-17.9,1-16.4,3.3c1.5,2.3,14.2,1.3,23.6,1.3
		c9.4,0,19-0.4,22.5-0.5c3.5-0.1,2.5,4.1,2.7,7.1c0.2,3-1.1,2.6-4.2,3.4c-2.1,0.5-12.5,1.3-17.6,0.7c-4.1-0.5-4.4,2-3.1,2.2
		c2.4,0.4,6,0.8,8.3,1c1.6,0.2,0.7,1.7,0,1.9c-0.6,0.2-1.9,0-2,1.8c-0.1,1.8,2.8,0.2,7.8-0.4c5-0.6,8-1.1,5.5-1.2
		c-2.5,0-6-0.3-8.3-0.4c-2.3-0.1-2.1-1-0.7-1.3c1.3-0.3,6.8-0.4,9.4-0.2c2.6,0.2,4.7-1.5,5-0.1c0.4,4.3-0.2,4.8-0.2,6.7
		c0,0-0.1,2.4,0,3.5c0.1,1.2-0.9,0.5-1.6,0.5c-0.7,0-9.9,0.1-9.7,1.9c0.2,1.8,11,1.8,11.8,1.8c0.9,0,1.9,0,2,0.5
		c0.1,0.5,0.3,3.4,0.5,5.5c0,0.6,0.2,3.2,0.3,3.7s0.4-0.6,0.7,0.5c0.4,1.1-0.4,1-1.5,1.2c-1.2,0.2-8.4,0.9-9.1,0.9
		c-0.8,0-4-0.2-4,0.7c0,0.9,3.8,1.2,4.6,1.3c0.8,0.1,5.9,0.3,10.1-0.4c4.2-0.8,30.2-0.4,33.8-0.5c3.9-0.1,5,2.6,7,5
		c0,0,26.9,37.2,30,40.2c0,0.8-0.6,1.3-2.9,1.3c-3.7,0.1-2.2-1.7-3.6-1.9s-7.2,3.7-16.8,5.5c-9.7,1.8-18.3,2.7-18.8,4.6
		c-0.4,1.9,10.9,1.2,19.7,0.3c8.9-0.9,17.8-2.1,19.5-2.3c1.7-0.2,3.5-1.1,2,1.3c-14,23.1-106.1,168.1-108.8,171.5
		c-2.5,3.3-99-136.6-118.7-167.8c-2.2-3.4,1-3.7,4.1-3.3c7.2,0.9,54.4,4.6,54.3,1.5c-0.1-2.2-8.2-0.7-23.9-1.1
		c-15.8-0.4-31-6.8-32.1-6.9c-1.1-0.1-1.3,1.6-3.5,1.5c-2.2-0.1-0.7-2.2,0.9-4.8c8.5-12.8,30.5-37,29.9-39.4
		c-0.8-3,27.7-2.1,27.7-2.1c1.9,0.1,14.3-0.2,19.2,0.3c4.9,0.5,16.9,0.8,22.2,0c5.3-0.8,3.7-2.2,0.4-2.4c-3.3-0.2-24.9,0.2-27.6-1
		c-2.7-1.2-2.4-5.9-1.8-9.1c0.5-2.8,0.9-2.4,5.2-2.5c4.2-0.1,17-0.2,20.4-0.9c3.4-0.7,5.4-0.6,5-2c-0.4-1.3-7.1-0.6-12.4-0.9
		c-5.3-0.3-15.7-0.6-17-0.7c-1.3-0.1-0.8-9.6-0.8-10.7c0-1.1,13.6-1.1,17.9-1.6c4.3-0.6,7.7-2,2.9-2.8c-4.9-0.8-19.3-0.3-20.1-0.7
		c-0.8-0.3-0.3-7.5,0.4-9c0.4-0.9,7.6-0.5,9.1-0.5c1.5,0,1.5-2.4,1.5-2.4c-0.1-1.8-7.1-1.4-9.1-1.2c-1.9,0.1-3.2,1.7-4.4,3.3
		c-1.2,1.6-0.7,9-0.7,10.7c0.1,1.3,0.8,1.5,1.4,1.6c-0.6-0.1-1.6,0-1.6,1.1c0,1.7,0.3,13.9-0.1,16.1c-0.3,2.2-1.1,10.1-1.1,10.5
		c0,0.4,1.5,0.8-0.3,1c-1.8,0.1-8.9,0.5-8.9,0.5c-5.9,0.4-26,0.8-28.4,0.9c-2.5,0.1-3,1.9-5.6,5.4c-2.7,3.5-26.5,37.7-28.1,40.2
		c-1.6,2.5-4.8,3.3-2.1,8.1c2.6,4.8,32.8,45.8,49.4,72c16.6,26.2,72,105.2,72.9,106.6c1,1.4,0.5,4.2,2.7,4c2.2-0.2,1.4-3.1,3.9-6.3
		C314,466.6,422,291.6,423.5,289c1.6-2.5,4.2-4.3-1-6.3c-5.2-2-33.4-41.8-33.4-41.8c-3.3-3.4-1.9-4.3-7.2-4.5
		c-5.3-0.2-29.3,0-30.9,0.1c0,0-2.8-0.7-2.4-2.8c0.3-2.1-0.1-2.4-0.1-6.1c0-1.7-1-30.1-1.2-33.1c-0.2-3-1.8-3.3-2.8-4
		C343.4,189.8,336.4,190.7,333.1,190.7z M259.1,209.9c0.2,0.1-0.1,0-0.4-0.1C258.9,209.9,259,209.9,259.1,209.9z"/>
	<path class="st0" d="M376.1,270.9c0,0-4.3,1-4,2.4c0.3,1.6,4.6-0.3,5,1.7c0.4,2.2-3.3,1.5-2.8,2.9c0.6,2,4.3-0.6,5,1.6
		c0.4,1.5-4,1.3-3.5,3c0.5,1.8,4.8-0.2,5.2,1.7c0.1,0.5-0.4,1.4-2.6,1.9c-2.2,0.5-5.1,0.7-4.9,2c0.1,1.3,7.4,0.2,10.7-0.4
		c3.3-0.6,18.3-3,24.7-5.2c1.9-0.6,2.6-1.2,1.2-2.3c-1.4-1.1-10-10.8-11.2-12.3c-3.3-3.9-5.5-8-8.1-11.5c-2.6-3.6-6.4-13.4-8-13.8
		c-1.5-0.4-2,0.2-9.7,2.2c-0.9,0.2-5.9,1-5.3,2.7c0.7,2,5.6-1.1,6.4,0.7c0.6,1.3-7.1,2-6.9,4.2c0.3,2.6,11.2-3.1,12.5-0.4
		c0.8,1.6-9.7,3-9.4,5.2c0.3,2.2,4.6-0.2,5.5,1.2c1.1,1.6-4,1.6-3.3,3.8c0.8,2.5,7.6-2.1,7.9,0.2c0.3,2.5-9.2,2.6-8.2,5.3
		c0.9,2.6,7.8-1.7,8.3,0.2C380.8,269.1,376.1,270.9,376.1,270.9z"/>
	<path class="st0" d="M356.6,295.9c0.2,2,13.8,2.9,13.8-1C370.3,291.9,356.3,294,356.6,295.9z"/>
	<path class="st0" d="M214.2,260.3c-2.1,1.6-14.7,19.3-15.9,20.8l-1.3,1.6c0,0-0.1,0.2,0.7,0.6c8.1,4.4,20.3,6.7,20.8,5.4
		c0.5-1.4-13.1-5-14.4-5.7c-1.3-0.6,1.2-2.8,3.8-6.6c0,0,0,0,0,0c1.8-2,8.7,1.9,9.2,1.2c0.5-0.7-7-4.4-6.3-5.7c0,0,0,0-0.1,0.1
		C216.7,262.3,216,258.8,214.2,260.3z"/>
	<path class="st0" d="M207.2,280.6c0,0,3.8,1,4.1-0.1c0.2-1.1-1.7-1.7-2.7-2C207.7,278.2,206.3,279.8,207.2,280.6z"/>
	<path class="st0" d="M255.5,367.1c-0.2,0.7-0.3,1.9,0.6,2.1c0.9,0.3,1.4-1.9,1.4-1.9C257.1,366.4,255.7,366.4,255.5,367.1z"/>
	<path class="st0" d="M261,378.4c0.8,2.1,2.7,0.3,2-1.1C262.7,376.7,260.2,376.4,261,378.4z"/>
	<path class="st0" d="M280.8,411.4c1.5,1.7,3-0.7,2.2-1.9C281.8,407.7,279.4,409.7,280.8,411.4z"/>
	<path class="st0" d="M287.9,433c4,5.3,15.5,19.9,17.8,23.3c2.7,4.1,2.6,3.7,3.8,1.6c1.1-1.8,7.9-12.4,10.7-17
		c0.3-0.3,0.7-0.8,1.1-1.8c0.2-0.3,0.3-0.6,0.4-0.8c3.6-6.5,28.2-46.5,38.2-63.1c2.3-3.9,6-9.1,9.4-15.6c0.8,0,1.4-0.5,1.9-2.3
		c0.1-0.4,0.6-1.3,1.3-2.5c0.8-1.2,1.3-2,1.4-2.3c7-11,25.1-36.3,25.6-37.8c0.6-1.9,1.5-2.3-0.9-2.9c-2.3-0.6-35.1-1.5-35.5,1.1
		c-0.2,1.4,3.3,1.9,4.1,2.7c1.1,1-0.1,2.2-1,2.2c-4.4-0.3-7-0.1-8.3-0.3c-2-0.4-3.4,1.9,0,2.7c2.1,0.4,3.9,1.4,3.7,2.4
		c-0.2,1.1-4.5,1-6.2,0.8c-2.9-0.3-2.9,1.9-1,2.3c1.8,0.4,5.3,0.8,5.2,1.4c-0.2,1.6-5.2,0.9-9.2,0.6c-2.9-0.2-2.9,1.8-0.2,2.3
		c2.8,0.4,4.1,0.6,6,0.7c2,0.1,3,0.6,2.8,1.8c-0.2,1.2-3,0.4-5.3,0.4c-2.6,0-5.2-0.4-6.3-0.4c-2.5-0.1-2.9,2.3,0.1,2.4
		c2.5,0.1,4,1,3.3,2.4c-0.7,1.4-6.9-0.9-6.8,1.4c0.1,0.9,1.1,1.1,1.1,1.1c1.8,0.2,2,1.1,1.9,1.9c-0.1,1.5-4.1,0.4-4.1,1.4
		c-0.1,2.1,3.7,1.1,6,1.9c1.7,0.6,2.7,1,2.1,1.8c-0.6,0.7-7.3-1.8-8.3,0.5c-0.8,1.8,4.7,2.6,5.1,2.8c3.2,0.4,2.5,1.9,0.1,2
		c-1.1,0-5.9-0.5-7.6-0.8c-2.9-0.4-4.1,2-1.6,2.5c2.6,0.5,3.1,0.8,3.1,1.4c-0.1,1.2-1,1.4-5,0.8c-2.8-0.4-3.1,1.6-0.3,2.2
		c2.7,0.6,4.1,0.9,5.9,1.1c2,0.2,3,0.7,2.7,2c-0.3,1.2-3,0.2-5.3,0.1c-2.6-0.1-5.1-0.7-6.2-0.8c-2.5-0.3-3.1,2.1,0,2.4
		c2.5,0.3,4,1.2,3.2,2.6c-0.8,1.4-6.6-1.3-6.8,1c-0.1,1.5,1.7,1.7,2.8,1.9c1.7,0.3,1.9,1.3,1.8,2c-0.2,1-2,1-3.1,0.8
		c-2.1-0.4-4.9-0.6-5.5-0.7c-1.3-0.1-1.9,1.7-0.1,2.1c2.1,0.5,5.3,0.7,4.7,2.8c-0.4,1.4-2.4,0.9-4.1,0.6c-2.9-0.4-3.6,1.8-1.1,2.2
		c2.6,0.4,3.2,0.7,3.1,1.3c-0.1,1.2-1,1.4-4.9,0.9c-2.8-0.4-3,1.7-0.3,2.2c2.7,0.5,4.1,0.8,5.9,1c2,0.2,4.9,0.8,4.6,2.1
		c-0.4,1.6-7.7-0.1-10.2-0.4c-2.6-0.3-5.1-0.6-6.3-0.7c-2.5-0.2-3,2.1,0,2.4c2.5,0.2,6.5,1.1,6,2.7c-0.5,1.7-7.9-0.9-8,1.4
		c-0.1,1.5,1.7,1.6,2.9,1.8c1.1,0.2,1.9,1.2,1.8,2c-0.2,1.5-4.8-0.6-5.1,1c-0.3,1.4,3.7,1.6,6.6,2c1.6,0.2,2.8,0.8,2.4,1.7
		c-0.9,2.3-8.1-0.8-8.5,0.7c-0.4,1.4,4.5,2.5,4.5,2.5c0.4,0.1,1.8,0.7,1.3,1.5c-0.8,1.5-10.6-1.4-12.3-1.7c-2.8-0.6-4.2,1.9-1.7,2.4
		c2.6,0.6,3.1,0.9,3,1.5c-0.1,1.2-1.1,1.3-5,0.6c-2.8-0.5-3.1,1.5-0.4,2.2c2.7,0.7,4,1,5.9,1.3c2,0.3,3.3,1,3,2.2
		c-0.3,1.2-3,0.1-5.3-0.1c-2.6-0.3-5.1-0.9-6.2-1.1c-2.5-0.4-3.1,1.9-0.1,2.4c2.5,0.4,7.7,1.5,7.2,3.5c-0.4,1.6-7.1-1.3-7.4,1
		c-0.2,1.5,1.6,2,2.7,2c9.7,0.4,8,6.6-2.3,3c-1.7-0.6-3.4-4-9.6-0.8c-1.7,0.9-4.1,1.4-4,0.2c0.1-1.2,2.3-2,2.1-3
		c-0.4-1.6-3.8,0.1-3.9-1.3c-0.1-1.2,1.5-1,1.5-2c0-0.4-0.2-0.6-0.5-0.7c0,0,0,0,0,0c0,0,0,0,0,0c0,0,0,0,0,0
		c-0.1,0-0.2-0.1-0.3-0.1c0,0,0,0,0,0c-0.1,0-0.1,0-0.2,0c-0.2,0-0.4,0-0.6,0c-1.4,0.1-4.8,0.9-5.6-0.7c-0.9-1.7-3.7-4.4-4-6.3
		c-0.2-1.4,2.8-1.9,2.7-3.8c-0.1-1.6-5.4,0.9-5.7-0.7c-0.3-1.8,3.2-3.1,3-4.5c-0.1-1.1-5.7,1.6-5.8,0.1c-0.2-1.6,1.9-1.9,1.7-3.4
		c-0.1-1-4.4,0.2-4.9-1.2c-0.4-1.4,0.8-1.9,0.7-2.9c-0.1-0.9-2.7-0.1-3-1.5c-0.4-1.5,0.8-1.9,0.6-3.4c-0.1-1-2.6-0.3-3-1.4
		c-0.5-1.4,1.4-1.6,1.2-3.1c-0.2-1.2-3.2,1.3-3.6-0.1c-0.2-0.8-3.7-5.6-3.9-7.1c-0.2-1.6,2.3-1.7,1.9-3.4c-0.3-1.4-4.8,0.8-5.2-0.5
		c-0.6-1.8,0.4-2.2,0.4-3.3c0-0.9-3.7,0.6-4-0.7c-0.3-1.1,1.2-1.4,1-2.3c-0.3-1.1-5.3-0.2-5.7-1.4c-0.5-1.6,2.9-1.3,2.7-3.4
		c-0.1-1.5-5.7,0.7-5.8-0.8c-0.1-1.5,3-2.4,2.9-4.2c0-1.2-5.6,0.9-6-0.7c-0.3-1.3,3.1-2.7,3.1-3.9c-0.1-1.2-6.4,0.1-6.6-1.2
		c-0.1-1.1,4.2-2.1,4.1-3.3c-0.1-0.8-8.1-0.5-8.6-1.4c-0.5-0.9,1.9-2.6,1.4-3.2c-1.3-1.8-6.7-1-8-3.9c-1.3-2.9-2.7-2.6-2-0.7
		c0.7,1.9,24.6,32.1,25.2,33.6c0.7,1.5,1.7,3.1,2.7,4.8c1,1.7,26.5,44.3,27.8,45.3c0,0,0,0,0,0c1.8,2.3,5,5.5,6.4,7.4
		C286.1,430.5,286.9,432.2,287.9,433z M370.1,316.8c0.3-2.1,3.8-1,3.6,0.6C373.5,319.1,369.8,318.7,370.1,316.8z M364.7,321.8
		c0-2.7,8.2-1.8,8.1,0.9C372.6,325.4,364.6,323.3,364.7,321.8z M366.1,327.5c0-1.6,3.6-1,3.5,0.4C369.5,329.2,366,329.2,366.1,327.5
		z M360.6,326.8c0-1.1,3.2-1.2,3.2,0.4C363.8,328.5,360.6,328.1,360.6,326.8z M362.6,332.3c0.9-1.6,3.7-0.4,3,1
		C364.9,334.6,361.8,333.7,362.6,332.3z M360.7,337.2c0.5-1.3,4.1-1.1,3.3,0.8C363.3,339.5,360.1,338.7,360.7,337.2z M353.1,336.3
		c0.1-1.5,3.8-1.5,3.6,0.4C356.5,338.6,352.9,338.1,353.1,336.3z M357.5,342.2c0.6-2.1,4.6-0.9,3.3,1.1
		C359.9,344.5,357.1,343.4,357.5,342.2z M350.7,341c0-1.7,3.6-1.2,3.5,0.4C354,343.2,350.6,342.9,350.7,341z M354.6,347.1
		c0.1-1.5,4-1.5,3.7,1.3C358,350.1,354.5,348.6,354.6,347.1z M352.8,352c0.1-1.6,3.6-0.7,3.5,0.6C356.1,353.8,352.6,353.7,352.8,352
		z M350,356.6c0.1-1.6,3.6-0.7,3.5,0.6C353.3,358.5,349.8,358.3,350,356.6z M344.5,355.4c0.1-1.1,3.3-1,3.1,0.6
		C347.5,357.3,344.4,356.7,344.5,355.4z M348.1,361.3c1-1.5,3.7-0.1,2.9,1.1C350.2,363.6,347.2,362.6,348.1,361.3z M348.4,367.6
		c-0.7,1.5-3.9,0.5-3.2-1C345.8,365.3,349.3,365.7,348.4,367.6z M339.5,365.1c0.2-1.5,3.9-1.2,3.6,0.6
		C342.8,367.7,339.2,366.9,339.5,365.1z M337.5,370c0.2-1.7,3.7-1,3.4,0.6C340.7,372.4,337.3,371.8,337.5,370z M334.6,375.5
		c0.2-2.7,11.1-2.4,9.2,1.1C342.5,378.9,334.5,377,334.6,375.5z M338,380.9c0.1-1.6,3.6-0.8,3.5,0.5
		C341.4,382.8,337.9,382.6,338,380.9z M331,379.8c0.1-1.1,3.3-1,3.2,0.6C334,381.7,330.9,381.2,331,379.8z M336.2,385.5
		c1-1.5,3.7-0.2,2.9,1.1C338.4,387.9,335.4,386.9,336.2,385.5z M332.9,390.4c0.6-1.3,4.1-1,3.2,1
		C335.5,392.8,332.2,391.9,332.9,390.4z M327,389.6c0.2-1.5,3.9-1.3,3.6,0.5C330.3,392.1,326.7,391.4,327,389.6z M330.4,395.7
		c0.7-2.1,4.6-0.7,3.2,1.2C332.7,398.1,329.9,396.9,330.4,395.7z M324.3,394.2c0.1-1.7,3.7-1.1,3.4,0.6
		C327.5,396.5,324.2,396,324.3,394.2z M327,400.3c0.2-1.5,4.1-1.3,3.6,1.4C330.3,403.5,326.8,401.9,327,400.3z M325,404.8
		c0.2-1.6,3.6-0.6,3.4,0.7C328.2,406.9,324.8,406.5,325,404.8z M326,410.1c-0.2,1.3-3.7,1-3.4-0.7
		C322.8,407.8,326.2,408.8,326,410.1z M317,407.8c0.1-1,3.3-0.8,3.1,0.8C319.9,409.9,316.8,409.1,317,407.8z M320,413.2
		c1.1-1.4,3.7,0,2.8,1.3C322,415.7,319.1,414.5,320,413.2z M320.7,419.8c-0.8,1.4-4,0.3-3.1-1.2C318.2,417.4,321.7,418,320.7,419.8z
		 M312,417.8c0.3-1.5,3.9-1,3.6,0.7C315.2,420.5,311.6,419.5,312,417.8z M314.4,423.8c0.8-2,4.6-0.4,3.1,1.4
		C316.6,426.4,313.9,425,314.4,423.8z M308.3,429.4c1.4-1.7,10.6,0.3,9.6,2.1C316.4,434.2,306.2,431.9,308.3,429.4z M294.5,426.3
		c0.2-1.7,3.7-0.9,3.4,0.8C297.5,428.9,294.2,428.1,294.5,426.3z M251.9,374.3c-0.3-0.7-0.3-1.8,0.1-2c0.5-0.3,0.9,0.6,1.4,1.5
		c0.4,0.7,0.2,1.1-0.2,1.3C252.8,375.4,252.2,375.1,251.9,374.3z M254.9,379c-0.4-0.7-0.4-1.4,0.2-1.7c0.6-0.4,1,0.6,1.4,1.4
		c0,0,0.7,1.1,0.1,1.4C256,380.3,255.3,379.7,254.9,379z M257.5,383.8c-0.7-0.8-0.3-1.9,0.2-2.3c0.5-0.4,1.2,0.8,1.6,1.5
		c0.2,0.3,0.7,1.6,0,1.9C258.6,385.4,258.2,384.7,257.5,383.8z M260.5,388.5c-0.5-0.8-0.3-1.5,0.3-2c0.6-0.5,1,0.4,1.5,1.2
		c0.3,0.5,0.6,1.5,0,1.9C261.7,390.1,261,389.3,260.5,388.5z M263.3,393c-0.5-0.8-0.2-1.3,0.4-1.9c0.4-0.4,0.9,0.6,1.4,1.2
		c0.4,0.6,0.6,1.5-0.1,1.8C264.1,394.5,263.8,393.8,263.3,393z M266.2,397.6c-0.6-0.9-0.2-1.6,0.2-2c0.4-0.4,0.9,0.7,1.5,1.3
		c0.5,0.6,0.3,1.3-0.2,1.7C267.2,399,266.8,398.6,266.2,397.6z M268.9,402.3c-0.6-1-0.1-1.4,0.4-1.7c0.5-0.3,1,0.4,1.3,1.2
		c0,0,0.8,1.3,0.1,1.8S269.6,403.3,268.9,402.3z M271.9,406.9c-0.5-0.9-0.2-1.4,0.4-1.8c0.6-0.4,1,0.5,1.3,1.1c0,0,0.7,1.6,0,1.9
		C272.9,408.4,272.4,407.8,271.9,406.9z M274.9,411.6c-0.5-1.1-0.2-1.4,0.3-1.7c0.5-0.4,1,0.4,1.3,0.9c0,0,0.9,1.7,0.1,2.1
		C275.8,413.3,275.4,412.7,274.9,411.6z M278.3,416.7c-1.3-1.8-0.6-4,1.3-1.5c0.5,0.7,0.4,1.7,0,2.1c-0.2,0-0.3,0.1-0.4,0.1
		C278.9,417.3,278.6,417.1,278.3,416.7z"/>
</g>
<g id="exterior">
	<g>
		<path class="st0" d="M176.8,538.8L172,536l9.3-15.7l-17.5-10.4l-9.3,15.7l-4.8-2.8l22.3-37.6l4.8,2.8l-10.5,17.7l17.5,10.4
			l10.5-17.7l4.8,2.8L176.8,538.8z"/>
		<path class="st0" d="M129.7,507.5l-18.7-16.8l3.1-3.5l14.6,13.1l9.2-10.2l-12.3-11.1l3.1-3.5l12.3,11.1l10.6-11.8l-15.1-13.6
			l3.1-3.5l19.2,17.3L129.7,507.5z"/>
		<path class="st0" d="M90.2,466.9l-3.8-5l25.6-38.4l3.6,4.7l-14.7,20.9c-2.9,4.2-5.9,8.3-9,12.5l0.2,0.2c4.8-2,9.5-3.8,14.3-5.6
			l24-8.8l3.5,4.5L90.2,466.9z M115,456.6l-12.3-15.9l3.5-2.7l12.3,15.9L115,456.6z"/>
		<path class="st0" d="M67.8,434.2L61.5,422c-4.1-7.9-4.1-15.1,4-19.2c7.8-4,14.4-0.2,18.5,7.7l3.7,7.2l16.4-8.4l2.5,5L67.8,434.2z
			 M80.3,413.3c-3.1-6.1-7.3-8.1-12.3-5.6c-5.1,2.6-5.2,6.9-2.1,12.9l3.3,6.5l14.4-7.4L80.3,413.3z M83.1,412.2l-4.5-2.6l14.3-22.3
			l2.9,5.6L83.1,412.2z"/>
		<path class="st0" d="M49.1,379l3.8,12.7l-4.5,1.4l-9.2-30.7l4.5-1.4l3.8,12.7l37.4-11.2l1.6,5.3L49.1,379z"/>
		<path class="st0" d="M61.4,333.3l-25,16.3l-0.7-5.9l11.6-7.1c3-1.8,5.9-3.5,8.9-5.4l0-0.3c-3.4-1.1-6.6-2.2-10-3.2l-12.9-4.1
			l-0.7-5.7l28.2,9.8l16.8-2.1l0.7,5.5L61.4,333.3z"/>
		<path class="st0" d="M48.3,225.6l-3.9,12.6l-4.5-1.4l9.5-30.6l4.5,1.4L50,220.3l37.2,11.6l-1.7,5.3L48.3,225.6z"/>
		<path class="st0" d="M60.4,182.3l2.9-5.6l45.7,6.7l-2.7,5.3L81,184.3c-5.1-0.8-10-1.7-15.1-2.8l-0.1,0.2
			c3.9,3.5,7.5,6.9,11.2,10.5l18.3,18l-2.6,5L60.4,182.3z M80.3,200.3l9.1-17.9l4,2l-9.1,17.9L80.3,200.3z"/>
		<path class="st0" d="M87.3,146.8l-7.9,10.6l-3.8-2.8l19.1-25.7l3.8,2.8l-7.9,10.6l31.3,23.2l-3.3,4.5L87.3,146.8z"/>
		<path class="st0" d="M118.5,111l-9.7,9l-3.2-3.4L129,94.8l3.2,3.4l-9.7,9l26.6,28.5l-4.1,3.8L118.5,111z"/>
		<path class="st0" d="M153.7,102.8c-7.4-11.9-5.4-23.2,3.9-29C167,68,178,71.1,185.4,83c7.4,11.9,5.5,23.4-3.8,29.2
			C172.3,118,161.1,114.6,153.7,102.8z M180.5,86c-5.8-9.2-13.7-12.2-20.3-8.1c-6.6,4.1-7.4,12.5-1.7,21.8
			c5.8,9.2,13.8,12.5,20.5,8.4C185.7,104,186.3,95.3,180.5,86z"/>
		<path class="st0" d="M199.8,76c-4.7-13.2-0.3-23.8,10-27.5c10.3-3.7,20.5,1.7,25.2,14.9c4.7,13.2,0.4,24.1-9.9,27.8
			C214.7,94.9,204.5,89.2,199.8,76z M229.6,65.4c-3.7-10.3-10.8-14.9-18.1-12.2c-7.3,2.6-9.9,10.7-6.3,20.9
			c3.7,10.3,10.9,15.1,18.2,12.5C230.8,84,233.2,75.6,229.6,65.4z"/>
		<path class="st0" d="M292.6,56.2c0-2.5,1.7-4.3,3.9-4.3c2.2,0,4,1.7,4,4.2c0,2.4-1.7,4.2-3.9,4.2
			C294.4,60.3,292.6,58.6,292.6,56.2z"/>
		<path class="st0" d="M367.3,42l5.3,1.7l-5.7,17.4l19.3,6.3l5.7-17.4l5.3,1.7l-13.5,41.6l-5.3-1.7l6.3-19.6l-19.3-6.3l-6.3,19.6
			l-5.3-1.7L367.3,42z"/>
		<path class="st0" d="M420,62.1l22,12.3l-2.3,4.1l-17.2-9.6l-6.7,12l14.5,8.1l-2.3,4.1L413.6,85l-7.7,13.9l17.7,9.9l-2.3,4.1
			l-22.6-12.6L420,62.1z"/>
		<path class="st0" d="M467.5,92.9l4.8,4L455.9,140l-4.5-3.7l9.6-23.7c1.9-4.8,3.9-9.4,6-14.1l-0.2-0.2c-4.3,3.1-8.4,5.8-12.7,8.6
			l-21.5,13.9l-4.4-3.6L467.5,92.9z M445.5,108.5l15.5,12.8l-2.8,3.4l-15.5-12.8L445.5,108.5z"/>
		<path class="st0" d="M496.7,119.9l8.8,10.5c5.7,6.8,7.3,13.8,0.3,19.6c-6.7,5.6-14,3.4-19.7-3.5l-5.2-6.2l-14.2,11.8l-3.6-4.3
			L496.7,119.9z M486.5,144.7l5,1.5l-9,24.9l-4-4.8L486.5,144.7z M489,143.1c4.4,5.2,8.9,6.3,13.2,2.7c4.4-3.7,3.6-7.9-0.8-13.1
			l-4.7-5.6l-12.5,10.4L489,143.1z"/>
		<path class="st0" d="M527.1,169.7l-6.5-11.5l4.1-2.3l15.7,27.9l-4.1,2.3l-6.5-11.5l-34,19.1l-2.7-4.8L527.1,169.7z"/>
		<path class="st0" d="M525,217l20.7-21.5l2,5.6l-9.7,9.5c-2.6,2.4-5,4.7-7.5,7.2l0.1,0.3c3.6,0.3,7,0.7,10.4,0.9l13.5,1.1l2,5.4
			l-29.6-3.3L511,228l-1.9-5.2L525,217z"/>
		<path class="st0" d="M561.7,319l1.1-13.2l4.7,0.4l-2.6,31.9l-4.7-0.4l1.1-13.2l-38.9-3.1l0.4-5.5L561.7,319z"/>
		<path class="st0" d="M559.5,364l-1.6,6.1l-46,3.5l1.5-5.7l25.5-1.3c5.1-0.3,10.1-0.5,15.4-0.6l0.1-0.3c-4.6-2.6-8.9-5.1-13.2-7.8
			l-21.7-13.5l1.4-5.5L559.5,364z M536,350.8l-5,19.5l-4.3-1.1l5-19.5L536,350.8z"/>
		<path class="st0" d="M541,404.6l5.3-12.1l4.3,1.9l-12.9,29.3l-4.3-1.9l5.3-12.1l-35.7-15.8l2.2-5.1L541,404.6z"/>
		<path class="st0" d="M518.5,446.2l7.4-10.9l3.9,2.6l-18,26.5l-3.9-2.6l7.4-10.9l-32.3-21.9l3.1-4.6L518.5,446.2z"/>
		<path class="st0" d="M486.1,462.1c9.9,9.9,10.4,21.4,2.6,29.1c-7.8,7.7-19.3,7.1-29.1-2.8c-9.9-9.9-10.6-21.6-2.8-29.4
			C464.5,451.4,476.2,452.2,486.1,462.1z M463.6,484.4c7.7,7.7,16.1,8.9,21.6,3.4c5.5-5.5,4.5-13.9-3.2-21.6
			c-7.7-7.7-16.3-9.1-21.8-3.6C454.6,468.1,455.9,476.7,463.6,484.4z"/>
		<path class="st0" d="M447,498.4c7.5,11.8,5.5,23.1-3.8,29c-9.3,5.9-20.3,2.8-27.8-9c-7.5-11.8-5.7-23.4,3.6-29.3
			C428.3,483.3,439.5,486.6,447,498.4z M420.3,515.3c5.8,9.2,13.7,12.1,20.3,8c6.6-4.2,7.3-12.6,1.5-21.8
			c-5.8-9.2-13.9-12.4-20.5-8.2C415,497.4,414.4,506.1,420.3,515.3z"/>
	</g>
</g>
</svg>
